<svg>

    <symbol xmlns="http://www.w3.org/2000/svg" id="icon-close-2" viewBox="0 0 10 10" fill="none">
        <path d="M2.72021 2.7207L7.27921 7.27969" stroke="white" stroke-width="1.16884" stroke-linecap="round" stroke-linejoin="round"/>
        <path d="M2.72021 7.2793L7.27921 2.72031" stroke="white" stroke-width="1.16884" stroke-linecap="round" stroke-linejoin="round"/>
    </symbol>


    <symbol xmlns="http://www.w3.org/2000/svg" id="icon-accept" viewBox="0 0 7 6" fill="none">
        <path d="M0.709961 3.11863L2.37663 4.7853L5.70996 1.21387" stroke="currentColor" stroke-width="1.1544" stroke-linecap="round" stroke-linejoin="round"/>
    </symbol>

    <symbol xmlns="http://www.w3.org/2000/svg" id="icon-credit-card" viewBox="0 0 16 16" fill="none">
        <path d="M2 6.00065V11.334C2 11.6876 2.14048 12.0267 2.39052 12.2768C2.64057 12.5268 2.97971 12.6673 3.33333 12.6673H12.6667C13.0203 12.6673 13.3594 12.5268 13.6095 12.2768C13.8595 12.0267 14 11.6876 14 11.334V6.00065M2 6.00065V4.66732C2 4.3137 2.14048 3.97456 2.39052 3.72451C2.64057 3.47446 2.97971 3.33398 3.33333 3.33398H12.6667C13.0203 3.33398 13.3594 3.47446 13.6095 3.72451C13.8595 3.97456 14 4.3137 14 4.66732V6.00065M2 6.00065H14M4.66667 8.66732H8" stroke="currentColor" stroke-width="1.5" stroke-linecap="round" stroke-linejoin="round"/>
    </symbol>

    <symbol xmlns="http://www.w3.org/2000/svg" id="icon-clock-term" viewBox="0 0 16 16" fill="none">
        <path d="M7.33329 5.83275V8.28609C7.33329 8.51942 7.45996 8.73942 7.65996 8.85942L9.73995 10.0928C9.97995 10.2328 10.2866 10.1528 10.4266 9.91942C10.5666 9.67942 10.4933 9.37275 10.2533 9.23275L8.33996 8.09275V5.82609C8.33329 5.55942 8.10662 5.33275 7.83329 5.33275C7.55996 5.33275 7.33329 5.55942 7.33329 5.83275ZM14 6.33275V2.80609C14 2.50609 13.64 2.35942 13.4333 2.57275L12.2466 3.75942C11.6221 3.1349 10.8676 2.65577 10.0368 2.35617C9.20597 2.05657 8.31931 1.94387 7.43996 2.02609C4.64662 2.27942 2.34662 4.52609 2.03996 7.31942C1.87785 8.88567 2.33794 10.4529 3.32098 11.6829C4.30402 12.913 5.7312 13.7073 7.29465 13.8946C8.85809 14.0818 10.4325 13.6469 11.6782 12.6837C12.9239 11.7206 13.741 10.3063 13.9533 8.74609C14 8.34609 13.6866 7.99942 13.2866 7.99942C12.9533 7.99942 12.6733 8.24609 12.6333 8.57275C12.3466 10.8994 10.34 12.6994 7.93329 12.6661C5.45995 12.6328 3.37329 10.5461 3.33329 8.06609C3.29329 5.46609 5.40662 3.33275 7.99996 3.33275C9.28662 3.33275 10.4533 3.85942 11.3 4.69942L9.90662 6.09275C9.69329 6.30609 9.83995 6.66609 10.14 6.66609H13.6666C13.8533 6.66609 14 6.51942 14 6.33275Z" fill="currentColor"/>
    </symbol>
    <symbol xmlns="http://www.w3.org/2000/svg" id="icon-add-note" focusable="false" role="img" fill="currentColor" viewBox="0 0 24 24" class="css-1f4rn1b eac13zx0">
        <path fill-rule="evenodd" d="M12 14.616l6 3.905V4H6v14.52l6-3.905zM4.383 21.96A.25.25 0 014 21.748V2.502a.5.5 0 01.5-.5h15a.5.5 0 01.5.5v19.246a.25.25 0 01-.383.212L12 17.002 4.383 21.96z" clip-rule="evenodd"/>
    </symbol>

    <symbol xmlns="http://www.w3.org/2000/svg" id="icon-product-links" focusable="false" role="presentation" fill="inherit" viewBox="0 0 24 24" class="css-1f4rn1b eac13zx0">
        <path fill-rule="evenodd" d="M7.004 9a3 3 0 100 6h3.4954c0 1-.8738 2-1.7477 2H7.0039a5 5 0 010-10h2.0973c.6991 0 1.3982 1 1.3982 2H7.0039zm9.9921 0a3 3 0 010 6h-3.4955c0 1 .8738 2 1.7477 2h1.7478a4.9999 4.9999 0 003.5355-8.5355A4.9999 4.9999 0 0016.9961 7h-2.0973c-.6991 0-1.3982 1-1.3982 2H16.9961zm-9.4922 2a.5.5 0 00-.5.5v1a.5.5 0 00.5.5h9a.5.5 0 00.5-.5v-1a.5.5 0 00-.5-.5h-9z" clip-rule="evenodd"/>
    </symbol>

    <symbol xmlns="http://www.w3.org/2000/svg" id="icon-location" viewBox="0 0 18 18" fill="none">
        <path d="M9.0001 16.5307C5.23571 12.739 3.35352 9.60305 3.35352 7.12314C3.35352 4.00462 5.88158 1.47656 9.0001 1.47656C12.1186 1.47656 14.6467 4.00462 14.6467 7.12314C14.6467 9.60305 12.7645 12.739 9.0001 16.5307ZM4.70352 7.12314C4.70352 8.9612 6.11184 11.4821 9.0001 14.5842C11.8884 11.4821 13.2967 8.9612 13.2967 7.12314C13.2967 4.75021 11.373 2.82656 9.0001 2.82656C6.62716 2.82656 4.70352 4.75021 4.70352 7.12314Z" fill="currentColor"/>
        <circle cx="9" cy="7" r="1.35" stroke="currentColor" stroke-width="1.3"/>
    </symbol>

    <symbol xmlns="http://www.w3.org/2000/svg" id="icon-user" viewBox="0 0 22 22" fill="none">
        <path d="M8.61374 13.1762C6.23713 13.3835 4.15011 15.0456 3.68431 17.0028C3.53567 17.6286 3.53718 18.0803 3.66115 18.388C3.75265 18.615 3.94261 18.8481 4.4608 19.0198L18.3003 19.0748C18.9778 18.9338 19.2117 18.68 19.32 18.4475C19.4664 18.1333 19.4808 17.6431 19.3054 16.949C18.8588 15.1832 17.0995 13.6615 14.9964 13.2703M8.61374 13.1762C9.32776 13.1137 10.5997 13.0743 11.8811 13.0846M8.61374 13.1762L11.8811 13.0846M11.8811 13.0846C13.1832 13.0951 14.3832 13.1567 14.9964 13.2703M11.8811 13.0846L14.9964 13.2703" stroke="currentColor" stroke-width="1.7"/>
        <circle cx="11.6035" cy="6.41799" r="3.71682" stroke="currentColor" stroke-width="1.75273"/>
    </symbol>

    <symbol xmlns="http://www.w3.org/2000/svg" id="arrow-menu" viewBox="0 0 8 14" fill="none">
        <path d="M1 13L7 7L1 1" stroke="currentColor" stroke-width="2" stroke-linecap="round" stroke-linejoin="round"/>
    </symbol>

    <symbol xmlns="http://www.w3.org/2000/svg" id="icon-clock" viewBox="0 0 20 20" fill="none">
        <circle cx="10.0033" cy="10.0033" r="7.33333" stroke="currentColor" stroke-width="2"/>
        <path fill-rule="evenodd" clip-rule="evenodd" d="M10.0201 6.0918H9.97119C9.6454 6.0918 9.38477 6.35243 9.38477 6.67822V10.5225C9.38477 10.8076 9.53137 11.0764 9.78386 11.223L13.1639 13.251C13.4408 13.4139 13.7992 13.3325 13.9621 13.0555C14.1331 12.7786 14.0435 12.4121 13.7585 12.2492L10.6065 10.3759V6.67822C10.6065 6.35243 10.3458 6.0918 10.0201 6.0918Z" fill="currentColor"/>
        <path fill-rule="evenodd" clip-rule="evenodd" d="M10.0201 6.0918H9.97119C9.6454 6.0918 9.38477 6.35243 9.38477 6.67822V10.5225C9.38477 10.8076 9.53137 11.0764 9.78386 11.223L13.1639 13.251C13.4408 13.4139 13.7992 13.3325 13.9621 13.0555C14.1331 12.7786 14.0435 12.4121 13.7585 12.2492L10.6065 10.3759V6.67822C10.6065 6.35243 10.3458 6.0918 10.0201 6.0918Z" fill="currentColor"/>
    </symbol>

    <symbol xmlns="http://www.w3.org/2000/svg" id="icon-phone" viewBox="0 0 20 20" fill="none">
        <g clip-path="url(#clip0_2389_322)">
            <path d="M13.8882 11.666C12.7771 12.7771 12.7771 13.8882 11.666 13.8882C10.5549 13.8882 9.44378 12.7771 8.33268 11.666C7.22158 10.5549 6.11045 9.44378 6.11045 8.33268C6.11045 7.22158 7.22155 7.22158 8.33268 6.11045C9.44382 4.99932 6.11045 1.66602 4.99935 1.66602C3.88825 1.66602 1.66602 4.99935 1.66602 4.99935C1.66602 7.22158 3.94902 11.7268 6.11045 13.8882C8.27188 16.0497 12.7771 18.3327 14.9993 18.3327C14.9993 18.3327 18.3327 16.1104 18.3327 14.9993C18.3327 13.8882 14.9993 10.5549 13.8882 11.666Z" fill="currentColor"/>
        </g>
        <defs>
            <clipPath id="clip0_2389_322">
                <rect width="16.6667" height="16.6667" fill="white" transform="translate(1.66602 1.66602)"/>
            </clipPath>
        </defs>
    </symbol>

    <symbol xmlns="http://www.w3.org/2000/svg" id="icon-phone-outline" viewBox="0 0 20 20" fill="none">
        <g clip-path="url(#clip0_3818_47594)">
            <path d="M13.8882 11.666C12.7771 12.7771 12.7771 13.8882 11.666 13.8882C10.5549 13.8882 9.44378 12.7771 8.33268 11.666C7.22158 10.5549 6.11045 9.44378 6.11045 8.33268C6.11045 7.22158 7.22155 7.22158 8.33268 6.11045C9.44382 4.99932 6.11045 1.66602 4.99935 1.66602C3.88825 1.66602 1.66602 4.99935 1.66602 4.99935C1.66602 7.22158 3.94902 11.7268 6.11045 13.8882C8.27188 16.0497 12.7771 18.3327 14.9993 18.3327C14.9993 18.3327 18.3327 16.1104 18.3327 14.9993C18.3327 13.8882 14.9993 10.5549 13.8882 11.666Z" stroke="currentColor" stroke-width="1.6"/>
        </g>
        <defs>
            <clipPath id="clip0_3818_47594">
                <rect width="20" height="20" fill="white"/>
            </clipPath>
        </defs>
    </symbol>


    <symbol xmlns="http://www.w3.org/2000/svg" id="icon-catalog" viewBox="0 0 24 24" fill="none">
        <path d="M22.1857 3.89453H17.5858C15.1714 3.89453 13.1395 4.5514 12 5.58057C10.8605 4.5514 8.82864 3.89453 6.41432 3.89453H1.81431C1.09011 3.89453 0.5 4.44467 0.5 5.12118V19.2278C0.5 19.905 1.09011 20.4545 1.81427 20.4545H6.41428C8.16687 20.4545 10.07 21.1574 10.7527 21.8222C11.0622 22.124 11.49 22.2945 11.9376 22.2945H12.069C12.5132 22.2945 12.9384 22.1246 13.2446 21.8241C13.9248 21.1586 15.8298 20.4545 17.5857 20.4545H22.1857C22.9105 20.4545 23.5 19.905 23.5 19.2278V5.12118C23.5 4.44467 22.9106 3.89453 22.1857 3.89453ZM11.0143 19.6204C9.84655 18.9917 8.24049 18.6145 6.41428 18.6145H2.47143V5.73452H6.41432C9.22228 5.73452 11.0143 6.82441 11.0143 7.57452L11.0143 19.6204ZM21.5286 18.6145H17.5858C15.7595 18.6145 14.1535 18.9917 12.9858 19.6204V7.57452C12.9858 6.82441 14.7778 5.73452 17.5858 5.73452H21.5286V18.6145Z" fill="currentColor"/>
    </symbol>

    <symbol xmlns="http://www.w3.org/2000/svg" id="icon-trash" viewBox="0 0 20 20" fill="none">
        <path d="M2.60937 3.89166C2.21173 3.89166 1.88937 4.21401 1.88937 4.61166C1.88938 5.0093 2.21173 5.33166 2.60938 5.33166L2.60937 3.89166ZM17.4094 5.33166C17.807 5.33166 18.1294 5.0093 18.1294 4.61166C18.1294 4.21401 17.807 3.89166 17.4094 3.89166L17.4094 5.33166ZM8.93069 8.33642C8.93069 7.93877 8.60834 7.61642 8.21069 7.61642C7.81305 7.61642 7.49069 7.93877 7.49069 8.33642L8.93069 8.33642ZM7.49069 14.0992C7.49069 14.4968 7.81304 14.8192 8.21069 14.8192C8.60833 14.8192 8.93069 14.4968 8.93069 14.0992L7.49069 14.0992ZM12.5281 8.33642C12.5281 7.93877 12.2057 7.61642 11.8081 7.61642C11.4104 7.61642 11.0881 7.93877 11.0881 8.33642H12.5281ZM11.0881 14.0992C11.0881 14.4968 11.4104 14.8192 11.8081 14.8192C12.2057 14.8192 12.5281 14.4968 12.5281 14.0992H11.0881ZM2.60938 5.33166L17.4094 5.33166L17.4094 3.89166L2.60937 3.89166L2.60938 5.33166ZM8.32047 3.92136V2.39211H6.88047V3.92136H8.32047ZM11.6983 2.39211V3.92136H13.1383V2.39211H11.6983ZM12.3292 3.01883C11.9498 3.01883 11.6983 2.70651 11.6983 2.39211H13.1383C13.1383 1.97467 12.807 1.57883 12.3292 1.57883V3.01883ZM8.32047 2.39211C8.32047 2.70651 8.06899 3.01883 7.68953 3.01883V1.57883C7.21169 1.57883 6.88047 1.97467 6.88047 2.39211H8.32047ZM3.79764 5.3295V17.7056H5.23764V5.3295H3.79764ZM4.6067 18.5188H15.412V17.0788H4.6067V18.5188ZM16.2211 17.7056V5.3295H14.7811V17.7056H16.2211ZM15.412 18.5188C15.8899 18.5188 16.2211 18.123 16.2211 17.7056H14.7811C14.7811 17.3911 15.0326 17.0788 15.412 17.0788V18.5188ZM3.79764 17.7056C3.79764 18.123 4.12887 18.5188 4.6067 18.5188V17.0788C4.98616 17.0788 5.23764 17.3911 5.23764 17.7056H3.79764ZM7.49069 8.33642L7.49069 14.0992L8.93069 14.0992L8.93069 8.33642L7.49069 8.33642ZM11.0881 8.33642V14.0992H12.5281V8.33642H11.0881ZM7.68953 3.01883H10.0094V1.57883H7.68953V3.01883ZM10.0094 3.01883H12.3292V1.57883H10.0094V3.01883Z" fill="currentColor"/>
    </symbol>

    <symbol xmlns="http://www.w3.org/2000/svg" id="icon-cart" viewBox="0 0 24 24" fill="none">
        <path fill-rule="evenodd" clip-rule="evenodd" d="M6.08128 5.10339L5.57225 3.65306C5.45801 3.29078 5.16201 2.50961 4.89187 2.28311C4.55418 2 4.34588 2 3.72119 2H2.51758C2.24667 2 1.98748 2.10285 1.79688 2.28495C1.60639 2.46694 1.5 2.71308 1.5 2.969C1.5 3.22494 1.60639 3.47107 1.79688 3.65306C1.98748 3.83516 2.24667 3.93801 2.51758 3.93801H3.76078L6.68869 13.826C6.80589 14.2773 7.0507 14.8047 7.36495 15.2928C7.67939 15.7813 8.05863 16.2231 8.44008 16.5078C8.81279 16.786 9.30675 16.9101 9.77917 16.9631C10.1574 17.0054 10.5111 17.0013 10.7682 16.9983C10.832 16.9975 10.8898 16.9969 10.9405 16.997H16.802C17.7923 17.0002 18.7544 16.6814 19.5294 16.0934C20.3043 15.5055 20.8462 14.6838 21.0667 13.7636L21.0679 13.7593L22.1811 8.36111L22.2207 8.19864C22.3367 7.65978 22.5425 6.53636 22.4922 6.12003C22.4887 6.09705 22.4846 6.0744 22.4801 6.05207C22.4246 5.77583 22.3014 5.55312 22.0815 5.39264C21.8597 5.23066 21.5282 5.1239 21.0409 5.10339H6.08128ZM19.1257 13.1857C18.9978 13.5571 18.7819 14.007 18.4692 14.3729C18.1561 14.7392 17.7384 15.0295 17.2091 15.0586L17.042 15.059H12.7733H10.9405C10.4278 15.059 9.99032 15.041 9.61491 14.8105C9.2375 14.5789 8.94159 14.1455 8.66882 13.3662L8.66742 13.3618L6.68869 7.02884L19.2081 7.0414H20.4181L19.2185 12.8711L19.1257 13.1857Z" fill="currentColor"/>
        <path d="M10.0625 22.502C11.0916 22.502 11.9259 21.6678 11.9259 20.6387C11.9259 19.6096 11.0916 18.7754 10.0625 18.7754C9.03346 18.7754 8.19922 19.6096 8.19922 20.6387C8.19922 21.6678 9.03346 22.502 10.0625 22.502Z" fill="currentColor"/>
        <path d="M16.0938 22.502C17.1229 22.502 17.9571 21.6678 17.9571 20.6387C17.9571 19.6096 17.1229 18.7754 16.0938 18.7754C15.0647 18.7754 14.2305 19.6096 14.2305 20.6387C14.2305 21.6678 15.0647 22.502 16.0938 22.502Z" fill="currentColor"/>
    </symbol>

    <!-- <symbol xmlns="http://www.w3.org/2000/svg" id="icon-close" viewBox="0 0 20 20" fill="none">
        <path d="M3 3L17 17" stroke="currentColor" stroke-width="2.5" stroke-linecap="round"/>
        <path d="M17 3L3 17" stroke="currentColor" stroke-width="2.5" stroke-linecap="round"/>
    </symbol> -->

    <symbol xmlns="http://www.w3.org/2000/svg" id="icon-close" viewBox="0 0 16 16" fill="none">
        <path d="M2.75075 1.46542C2.39581 1.11049 1.82036 1.11049 1.46542 1.46542C1.11049 1.82036 1.11049 2.39581 1.46542 2.75075L6.71387 7.99919L1.46547 13.2476C1.11054 13.6025 1.11054 14.178 1.46547 14.5329C1.82041 14.8879 2.39587 14.8879 2.7508 14.5329L7.99919 9.28451L13.2476 14.5329C13.6025 14.8879 14.178 14.8879 14.5329 14.5329C14.8879 14.178 14.8879 13.6025 14.5329 13.2476L9.28451 7.99919L14.533 2.75075C14.8879 2.39581 14.8879 1.82036 14.533 1.46542C14.1781 1.11049 13.6026 1.11049 13.2477 1.46542L7.99919 6.71387L2.75075 1.46542Z" fill="currentColor"/>
    </symbol>


    <symbol xmlns="http://www.w3.org/2000/svg" id="icon-search" viewBox="0 0 20 20" fill="none">
        <path d="M17.5 17.5L12.5418 12.5418M14.2647 8.38235C14.2647 5.13362 11.6311 2.5 8.38235 2.5C5.13362 2.5 2.5 5.13362 2.5 8.38235C2.5 11.6311 5.13362 14.2647 8.38235 14.2647C11.6311 14.2647 14.2647 11.6311 14.2647 8.38235Z" stroke="currentColor" stroke-width="2" stroke-linecap="round" stroke-linejoin="round"/>
    </symbol>

    <symbol xmlns="http://www.w3.org/2000/svg" id="icon-star" viewBox="0 0 16 15" fill="none">
        <path d="M7.55163 0.908492C7.73504 0.536869 8.26496 0.53687 8.44837 0.908493L10.2348 4.52821C10.3076 4.67578 10.4484 4.77807 10.6113 4.80173L14.6059 5.38218C15.016 5.44177 15.1797 5.94576 14.883 6.23503L11.9925 9.05258C11.8746 9.16745 11.8208 9.33295 11.8487 9.49515L12.531 13.4736C12.6011 13.8821 12.1724 14.1935 11.8055 14.0007L8.23267 12.1223C8.08701 12.0457 7.91299 12.0457 7.76733 12.1223L4.19445 14.0007C3.82764 14.1935 3.39892 13.8821 3.46898 13.4736L4.15134 9.49515C4.17916 9.33295 4.12538 9.16745 4.00754 9.05258L1.11702 6.23503C0.820263 5.94576 0.984019 5.44177 1.39413 5.38218L5.38873 4.80173C5.55158 4.77807 5.69236 4.67578 5.76519 4.52821L7.55163 0.908492Z" fill="currentColor"/>
    </symbol>

    <symbol xmlns="http://www.w3.org/2000/svg" id="icon-star-half" viewBox="0 0 10 20" fill="none">
        <g clip-path="url(#clip0_7674_62557)">
            <path fill-rule="evenodd" clip-rule="evenodd" d="M10 0.629761C9.82166 0.629755 9.64332 0.722661 9.55162 0.908478L7.17739 5.71918C7.10456 5.86675 6.96378 5.96904 6.80093 5.9927L1.492 6.76413C1.08189 6.82372 0.918136 7.32771 1.21489 7.61698L5.05647 11.3616C5.17431 11.4765 5.22809 11.642 5.20027 11.8042L4.29339 17.0916C4.22334 17.5001 4.65206 17.8116 5.01887 17.6187L9.76731 15.1223C9.84015 15.084 9.92008 15.0649 10 15.0649V0.629761Z" fill="currentColor"/>
            <path d="M12.8226 5.71918L10.4484 0.908478C10.3567 0.722672 10.1783 0.629766 10 0.629761V15.0649C10.0799 15.0649 10.1598 15.084 10.2327 15.1223L14.9811 17.6187C15.3479 17.8116 15.7766 17.5001 15.7066 17.0916L14.7997 11.8042C14.7719 11.642 14.8257 11.4765 14.9435 11.3616L18.7851 7.61698C19.0818 7.32771 18.9181 6.82372 18.508 6.76413L13.199 5.9927C13.0362 5.96904 12.8954 5.86675 12.8226 5.71918Z" fill="currentColor"/>
        </g>
        <defs>
            <clipPath id="clip0_7674_62557">
                <rect width="10" height="20" fill="white"/>
            </clipPath>
        </defs>
    </symbol>

    <symbol xmlns="http://www.w3.org/2000/svg" id="icon-home" viewBox="0 0 24 24" fill="none">
        <path d="M21.9657 11.4097C21.9648 11.1283 21.8453 10.8602 21.6367 10.6714L12.7239 2.60656C12.3433 2.26213 11.7636 2.26186 11.3827 2.60594L2.32973 10.7824C2.1198 10.972 2 11.2417 2 11.5245V21.1213C2 21.6736 2.44772 22.1213 3 22.1213H9.03571C9.588 22.1213 10.0357 21.6736 10.0357 21.1213V14.8892H13.6071V21.1213C13.6071 21.6736 14.0549 22.1213 14.6071 22.1213H20.9968C21.5503 22.1213 21.9986 21.6716 21.9968 21.1181L21.9657 11.4097ZM20.5714 20.8356H15.0357V14.6034C15.0357 14.0512 14.588 13.6034 14.0357 13.6034H9.60714C9.05486 13.6034 8.60714 14.0512 8.60714 14.6034V20.8356H3.42857V11.7713L12.0893 3.92845L20.5714 11.6267V20.8356Z" fill="currentColor" stroke="currentColor" stroke-width="0.5"/>
    </symbol>

    <symbol xmlns="http://www.w3.org/2000/svg" id="icon-heart" viewBox="0 0 18 16" fill="none">
        <path fill-rule="evenodd" clip-rule="evenodd" d="M8.87175 1.898L8.76603 1.81126C7.68678 0.925726 6.53166 0.476562 5.31295 0.476562C2.7681 0.476562 0.705078 2.53957 0.705078 5.08442C0.705078 8.60367 3.30553 12.0626 8.504 15.4995L8.87159 15.7426L9.23925 15.4995C14.4378 12.0626 17.0384 8.60367 17.0384 5.08442C17.0384 2.53956 14.9754 0.476562 12.4306 0.476562C11.2118 0.476562 10.0567 0.925727 8.97746 1.81126L8.87175 1.898ZM8.87175 3.74382L9.34116 3.27847C10.3327 2.2954 11.3547 1.8099 12.4306 1.8099C14.239 1.8099 15.7051 3.27594 15.7051 5.08442C15.7051 8.00414 13.4544 11.0135 8.96562 14.0772L8.87166 14.1413L8.77771 14.0772C4.28899 11.0135 2.03841 8.00414 2.03841 5.08442C2.03841 3.27595 3.50447 1.8099 5.31295 1.8099C6.38882 1.8099 7.41083 2.2954 8.40242 3.27848L8.87175 3.74382Z" fill="currentColor"/>
        <path d="M9.34116 3.27847L8.87175 3.74382L8.40242 3.27848C7.41083 2.2954 6.38882 1.8099 5.31295 1.8099C3.50447 1.8099 2.03841 3.27595 2.03841 5.08442C2.03841 8.00414 4.28899 11.0135 8.77771 14.0772L8.87166 14.1413L8.96562 14.0772C13.4544 11.0135 15.7051 8.00414 15.7051 5.08442C15.7051 3.27594 14.239 1.8099 12.4306 1.8099C11.3547 1.8099 10.3327 2.2954 9.34116 3.27847Z" fill="currentColor"/>
    </symbol>

    <symbol xmlns="http://www.w3.org/2000/svg" id="icon-document" viewBox="0 0 20 20" fill="none">
        <path d="M3.83301 18H3.16634C3.16634 18.3682 3.46482 18.6667 3.83301 18.6667V18ZM17.1663 18V18.6667C17.5345 18.6667 17.833 18.3682 17.833 18H17.1663ZM3.83301 2V1.33333C3.46482 1.33333 3.16634 1.63181 3.16634 2H3.83301ZM12.8373 2L13.3149 1.53484C13.1894 1.406 13.0172 1.33333 12.8373 1.33333V2ZM17.1663 6.44444H17.833C17.833 6.27067 17.7652 6.10377 17.6439 5.97928L17.1663 6.44444ZM3.83301 18.6667H17.1663V17.3333H3.83301V18.6667ZM3.16634 2V18H4.49967V2H3.16634ZM11.9715 1.33333H3.83301V2.66667H11.9715V1.33333ZM17.833 18V7.33333H16.4997V18H17.833ZM11.9715 2.66667H12.8373V1.33333H11.9715V2.66667ZM17.833 7.33333V6.44444H16.4997V7.33333H17.833ZM17.6439 5.97928L13.3149 1.53484L12.3598 2.46516L16.6888 6.90961L17.6439 5.97928ZM11.3049 2V5.55556H12.6382V2H11.3049ZM11.3049 5.55556C11.3049 6.21069 11.6176 6.81435 12.0351 7.24294C12.4515 7.67043 13.0471 8 13.7031 8V6.66667C13.4933 6.66667 13.2232 6.55179 12.9902 6.31262C12.7583 6.07454 12.6382 5.78931 12.6382 5.55556H11.3049ZM13.7031 8H17.1663V6.66667H13.7031V8Z" fill="currentColor"/>
        <path d="M5.58398 11.0075H5.52254V11.069V14.7531V14.8145H5.58398H6.40659H6.46804V14.7531V13.6707H7.1829C7.61083 13.6707 7.96419 13.5504 8.23723 13.3052C8.51104 13.0594 8.64713 12.7366 8.64713 12.343C8.64713 11.9467 8.51527 11.6224 8.24892 11.3763C7.98496 11.129 7.64124 11.0075 7.22375 11.0075H5.58398ZM9.00822 11.005H8.94677V11.0664V14.7531V14.8145H9.00822H10.5554C11.1551 14.8145 11.6267 14.6494 11.961 14.3112C12.297 13.9714 12.4609 13.4926 12.4609 12.8842C12.4609 12.2955 12.2957 11.8311 11.9577 11.5C11.6217 11.1674 11.1513 11.005 10.5554 11.005H9.00822ZM11.2168 12.0768L11.2169 12.077C11.4024 12.2666 11.499 12.537 11.499 12.897C11.499 13.2751 11.4036 13.5547 11.2219 13.7456C11.0405 13.9344 10.7779 14.0329 10.4246 14.0329H9.89227V11.7865H10.4246C10.7701 11.7865 11.0313 11.8856 11.2168 12.0768ZM13.6636 14.8145H13.7251V14.7531V13.3797H15.2626H15.324V13.3182V12.6876V12.6262H15.2626H13.7251V11.7891H15.4151H15.4765V11.7277V11.069V11.0075H15.4151H12.841H12.7796V11.069V14.7531V14.8145H12.841H13.6636ZM6.46804 12.9223V11.7636H7.00585C7.23488 11.7636 7.40201 11.8168 7.51605 11.9147C7.6284 12.0111 7.68802 12.1514 7.68802 12.3455C7.68802 12.5374 7.6278 12.6769 7.51365 12.7735C7.3996 12.8698 7.23234 12.9223 7.00312 12.9223H6.46804Z" fill="currentColor" stroke="currentColor" stroke-width="0.122889"/>
    </symbol>

    <symbol xmlns="http://www.w3.org/2000/svg" id="icon-warning" viewBox="0 0 20 20" fill="none">
        <path d="M9.06858 1.51808C9.49123 0.81365 10.5121 0.813652 10.9348 1.51808L18.8065 14.6376C19.2417 15.3629 18.7193 16.2857 17.8734 16.2857H2.12996C1.28411 16.2857 0.761658 15.3629 1.19684 14.6376L9.06858 1.51808Z" fill="currentColor"/>
        <path d="M9.96094 13.6152V13.623M9.96094 5.88477V11.3015" stroke="white" stroke-width="1.63228" stroke-linecap="round" stroke-linejoin="round"/>
    </symbol>

    <symbol xmlns="http://www.w3.org/2000/svg" id="icon-grid" viewBox="0 0 20 20" fill="none">
        <path d="M3 3.33333C3 3.14924 3.14924 3 3.33333 3H8.66667C8.85076 3 9 3.14924 9 3.33333V8.66667C9 8.85076 8.85076 9 8.66667 9H3.33333C3.14924 9 3 8.85076 3 8.66667V3.33333Z" fill="currentColor"/>
        <path d="M11 3.33333C11 3.14924 11.1492 3 11.3333 3H16.6667C16.8508 3 17 3.14924 17 3.33333V8.66667C17 8.85076 16.8508 9 16.6667 9H11.3333C11.1492 9 11 8.85076 11 8.66667V3.33333Z" fill="currentColor"/>
        <path d="M3 11.3333C3 11.1492 3.14924 11 3.33333 11H8.66667C8.85076 11 9 11.1492 9 11.3333V16.6667C9 16.8508 8.85076 17 8.66667 17H3.33333C3.14924 17 3 16.8508 3 16.6667V11.3333Z" fill="currentColor"/>
        <path d="M11 11.3333C11 11.1492 11.1492 11 11.3333 11H16.6667C16.8508 11 17 11.1492 17 11.3333V16.6667C17 16.8508 16.8508 17 16.6667 17H11.3333C11.1492 17 11 16.8508 11 16.6667V11.3333Z" fill="currentColor"/>
    </symbol>

    <symbol xmlns="http://www.w3.org/2000/svg" id="icon-grid-horizontal" viewBox="0 0 20 20" fill="none">
        <path d="M3.33333 6.23077C3.14924 6.23077 3 6.08153 3 5.89744V3.33333C3 3.14924 3.14924 3 3.33333 3H16.6667C16.8508 3 17 3.14924 17 3.33333V5.89744C17 6.08153 16.8508 6.23077 16.6667 6.23077H3.33333Z" fill="currentColor"/>
        <path d="M3.33333 11.6154C3.14924 11.6154 3 11.4547 3 11.2564V8.74359C3 8.54533 3.14924 8.38462 3.33333 8.38462H16.6667C16.8508 8.38462 17 8.54533 17 8.74359V11.2564C17 11.4547 16.8508 11.6154 16.6667 11.6154H3.33333Z" fill="currentColor"/>
        <path d="M3.33333 17C3.14924 17 3 16.8393 3 16.641V14.1282C3 13.9299 3.14924 13.7692 3.33333 13.7692H16.6667C16.8508 13.7692 17 13.9299 17 14.1282V16.641C17 16.8393 16.8508 17 16.6667 17H3.33333Z" fill="currentColor"/>
    </symbol>

    <symbol xmlns="http://www.w3.org/2000/svg" id="icon-grid-catalog" viewBox="0 0 16 16" fill="none">
        <path d="M0 1.90909V7H7V0H1.90909C1.40277 0 0.917184 0.201136 0.55916 0.55916C0.201136 0.917184 0 1.40277 0 1.90909ZM1.90909 1.90909H5.09091V5.09091H1.90909V1.90909Z" fill="currentColor"/>
        <path d="M14.0909 0H9V7H16V1.90909C16 1.40277 15.7989 0.917184 15.4408 0.55916C15.0828 0.201136 14.5972 0 14.0909 0ZM14.0909 5.09091H10.9091V1.90909H14.0909V5.09091Z" fill="currentColor"/>
        <path d="M0 14.0909C0 14.5972 0.201136 15.0828 0.55916 15.4408C0.917184 15.7989 1.40277 16 1.90909 16H7V9H0V14.0909ZM1.90909 10.9091H5.09091V14.0909H1.90909V10.9091Z" fill="currentColor"/>
        <path d="M9 16H14.0909C14.5972 16 15.0828 15.7989 15.4408 15.4408C15.7989 15.0828 16 14.5972 16 14.0909V9H9V16ZM10.9091 10.9091H14.0909V14.0909H10.9091V10.9091Z" fill="currentColor"/>
    </symbol>

    <symbol xmlns="http://www.w3.org/2000/svg" id="icon-filter" viewBox="0 0 22 22" fill="none">
        <circle cx="7.99038" cy="6.43032" r="2.28051" stroke="currentColor" stroke-width="1.7"/>
        <circle cx="14.0086" cy="15.0209" r="2.28051" transform="rotate(-180 14.0086 15.0209)" stroke="currentColor" stroke-width="1.7"/>
        <rect x="12.0161" y="5.81738" width="8.88407" height="1.82558" rx="0.912789" fill="currentColor"/>
        <rect x="9.98438" y="15.9336" width="8.88407" height="1.82558" rx="0.912789" transform="rotate(-180 9.98438 15.9336)" fill="currentColor"/>
        <rect x="1.10547" y="5.81738" width="5.05893" height="1.82558" rx="0.912789" fill="currentColor"/>
        <rect x="15.8413" y="14.1074" width="5.05893" height="1.82558" rx="0.912789" fill="currentColor"/>
    </symbol>

    <symbol xmlns="http://www.w3.org/2000/svg" id="icon-delivery-truck" viewBox="0 0 16 16" fill="none">
        <g clip-path="url(#clip0_3643_798)">
            <path d="M5.33285 12.6657C5.68647 12.6657 6.02561 12.5252 6.27565 12.2752C6.5257 12.0251 6.66618 11.686 6.66618 11.3324C6.66618 10.9787 6.5257 10.6396 6.27565 10.3895C6.02561 10.1395 5.68647 9.99902 5.33285 9.99902C4.97922 9.99902 4.64008 10.1395 4.39004 10.3895C4.13999 10.6396 3.99951 10.9787 3.99951 11.3324C3.99951 11.686 4.13999 12.0251 4.39004 12.2752C4.64008 12.5252 4.97922 12.6657 5.33285 12.6657ZM11.9995 12.6657C12.3531 12.6657 12.6923 12.5252 12.9423 12.2752C13.1924 12.0251 13.3328 11.686 13.3328 11.3324C13.3328 10.9787 13.1924 10.6396 12.9423 10.3895C12.6923 10.1395 12.3531 9.99902 11.9995 9.99902C11.6459 9.99902 11.3068 10.1395 11.0567 10.3895C10.8067 10.6396 10.6662 10.9787 10.6662 11.3324C10.6662 11.686 10.8067 12.0251 11.0567 12.2752C11.3068 12.5252 11.6459 12.6657 11.9995 12.6657Z" stroke="currentColor" stroke-width="1.4" stroke-miterlimit="1.5" stroke-linecap="round" stroke-linejoin="round"/>
            <path d="M6.69984 11.333H9.99984V3.34835C9.99984 3.22618 9.9577 3.10901 9.88268 3.02262C9.80767 2.93623 9.70592 2.8877 9.59984 2.8877H0.666504M3.7665 11.333H2.39984C2.34731 11.333 2.29529 11.3211 2.24676 11.2979C2.19823 11.2748 2.15414 11.2409 2.11699 11.1981C2.07985 11.1553 2.05039 11.1045 2.03029 11.0486C2.01018 10.9927 1.99984 10.9328 1.99984 10.8724V7.11035" stroke="currentColor" stroke-width="1.5" stroke-linecap="round"/>
            <path d="M1.3335 4.92383H4.00016" stroke="currentColor" stroke-width="1.5" stroke-linecap="round" stroke-linejoin="round"/>
            <path d="M9.99951 5.2998H13.7395C13.8168 5.29983 13.8925 5.32519 13.9573 5.37284C14.0222 5.42048 14.0734 5.48836 14.1048 5.56825L15.2982 8.60564C15.3209 8.66332 15.3327 8.72573 15.3328 8.78888V10.8799C15.3328 10.9393 15.3225 10.9982 15.3024 11.0531C15.2823 11.1079 15.2528 11.1578 15.2157 11.1998C15.1785 11.2419 15.1344 11.2752 15.0859 11.2979C15.0374 11.3207 14.9854 11.3324 14.9328 11.3324H13.6662M9.99951 11.3324H10.6662" stroke="currentColor" stroke-width="1.4" stroke-linecap="round"/>
        </g>
        <defs>
            <clipPath id="clip0_3643_798">
                <rect width="16" height="16" fill="white"/>
            </clipPath>
        </defs>
    </symbol>


    <symbol xmlns="http://www.w3.org/2000/svg" id="icon-check" viewBox="0 0 14 14" fill="none">
        <path d="M12.7072 4.20711C13.0977 3.81658 13.0977 3.18342 12.7072 2.79289C12.3166 2.40237 11.6835 2.40237 11.293 2.79289L12.7072 4.20711ZM5.00004 10.5L4.29294 11.2071C4.68346 11.5977 5.31662 11.5976 5.70715 11.2071L5.00004 10.5ZM2.7071 6.79289C2.31658 6.40237 1.68341 6.40237 1.29289 6.7929C0.902368 7.18342 0.90237 7.81659 1.2929 8.20711L2.7071 6.79289ZM11.293 2.79289L4.29293 9.79291L5.70715 11.2071L12.7072 4.20711L11.293 2.79289ZM1.2929 8.20711L4.29294 11.2071L5.70715 9.79291L2.7071 6.79289L1.2929 8.20711Z" fill="currentColor"/>
    </symbol>
    <symbol xmlns="http://www.w3.org/2000/svg" id="icon-password-close" viewBox="0 0 18 18" fill="none">
        <g>
            <path fill-rule="evenodd" clip-rule="evenodd" d="M9.05184 11.4335C8.35538 11.4335 7.75462 11.1925 7.24956 10.7103C6.74449 10.2281 6.49196 9.6521 6.49196 8.98215C6.49196 8.3122 6.74449 7.73869 7.24956 7.26161C7.75462 6.77945 8.35538 6.53837 9.05184 6.53837C9.74829 6.53837 10.3304 6.77691 10.7983 7.254C11.2715 7.72601 11.508 8.30205 11.508 8.98215C11.508 9.66225 11.2741 10.2408 10.8063 10.7179C10.3384 11.195 9.75361 11.4335 9.05184 11.4335ZM3.1107 8.9517C3.1107 9.54044 3.38183 10.0353 3.92411 10.4362C7.21502 13.1668 10.5989 13.1668 14.0759 10.4362C14.5491 9.98453 14.7803 9.50238 14.7697 8.98977C14.7697 8.67002 14.6155 8.34012 14.3072 8.00007C14.2008 7.88841 14.044 7.73362 13.8366 7.53568C12.1992 6.24146 10.5192 5.62735 8.79665 5.69333C7.48347 5.74408 6.17564 6.1704 4.8731 6.97231C4.5488 7.17533 4.23247 7.40118 3.92411 7.64987C3.72209 7.84274 3.57589 7.98738 3.48551 8.08382C3.23563 8.36296 3.1107 8.65225 3.1107 8.9517ZM1.125 8.93648C1.125 8.08381 1.43601 7.35804 2.05804 6.75915V6.7287C2.07399 6.67287 2.11386 6.64495 2.17766 6.64495C4.26704 4.54882 6.46537 3.46017 8.77272 3.37897C10.2454 3.32821 11.742 3.76469 13.2625 4.68841C14.0918 5.19594 14.9052 5.84812 15.7027 6.64495C16.0589 6.93425 16.3434 7.28698 16.556 7.70317C16.7687 8.11935 16.875 8.54821 16.875 8.98977C16.875 9.81705 16.5241 10.6316 15.8223 11.4335C14.2221 12.8851 12.6351 13.8494 11.0615 14.3265C10.4554 14.5041 9.78019 14.6031 9.03589 14.6234C8.29158 14.6386 7.56057 14.5447 6.84285 14.3417C6.11449 14.1387 5.33564 13.7733 4.50627 13.2454C3.67689 12.7176 2.86083 12.0401 2.05804 11.2128V11.1062C1.43601 10.5124 1.125 9.78914 1.125 8.93648Z" fill="currentColor"/>
        </g>
    </symbol>
    <symbol xmlns="http://www.w3.org/2000/svg" id="icon-password-open" viewBox="0 0 18 18" fill="none">
        <g>
            <path fill-rule="evenodd" clip-rule="evenodd" d="M11.3885 9.00385C11.3885 9.51154 11.2343 9.97051 10.926 10.3808C10.6176 10.791 10.2269 11.0808 9.75371 11.25L10.2242 12.3731C11.5533 12.1167 12.7973 11.4808 13.9563 10.4654C14.4986 10.1526 14.7697 9.68334 14.7697 9.05769C14.7697 8.43205 14.4986 7.96282 13.9563 7.65C13.414 7.16795 12.8505 6.78077 12.2657 6.48846C10.708 5.7141 9.21145 5.46282 7.77602 5.73462L8.1269 6.63462C8.28108 6.55769 8.55221 6.5218 8.9403 6.52692C9.63144 6.52692 10.2109 6.76795 10.6788 7.25C11.1466 7.73205 11.3832 8.31666 11.3885 9.00385ZM2.17787 11.3654C1.8323 11.0885 1.56915 10.7397 1.38839 10.3192C1.20763 9.89872 1.11991 9.46026 1.12523 9.00385C1.12523 8.10128 1.47611 7.31154 2.17787 6.63462C2.29483 6.52179 2.50748 6.33462 2.81584 6.07308C3.12419 5.81154 3.33684 5.62436 3.4538 5.51154L4.15556 7.53462C3.4538 8.04231 3.10558 8.53205 3.1109 9.00385C3.11621 9.26539 3.20393 9.54231 3.37406 9.83462C3.54418 10.1269 3.72759 10.3372 3.9243 10.4654C4.7005 11.0295 5.28263 11.4038 5.67073 11.5885L6.60376 14.2885C4.89719 13.6731 3.42191 12.6987 2.17787 11.3654ZM16.875 8.95C16.875 9.81154 16.564 10.5423 15.942 11.1423C14.4587 12.768 12.7867 13.8551 10.926 14.4038L11.3885 15.75H9.05992L8.9403 15.1885L4.38683 2.25H6.60376L7.07426 3.59615C8.29171 3.26282 9.45599 3.22436 10.5671 3.48077C12.497 3.93205 14.2088 4.94743 15.7027 6.52692C15.7825 6.52692 15.8224 6.56282 15.8224 6.63462L15.942 6.75C16.564 7.35513 16.875 8.08846 16.875 8.95Z" fill="currentColor"/>
        </g>
    </symbol>
    <symbol xmlns="http://www.w3.org/2000/svg" id="icon-edit" viewBox="0 0 18 18" fill="none">
        <g>
            <path d="M6.47894 15.6084L3.08249 15.75C2.62276 15.75 2.25 15.3772 2.25 14.9175L2.31652 11.4876L9.02618 4.82767L13.1389 8.89868L6.47894 15.6084ZM14.3378 7.73326L10.217 3.57083L11.1075 2.73834C11.4201 2.42578 11.8437 2.25 12.2856 2.25C12.7275 2.25 13.1512 2.42579 13.4638 2.73834L15.2202 4.50331C15.5327 4.81549 15.7085 5.23917 15.7085 5.68106C15.7085 6.12295 15.5327 6.547 15.2202 6.8592L14.3378 7.73326Z" fill="currentColor"/>
        </g>
    </symbol>

    <symbol xmlns="http://www.w3.org/2000/svg" id="icon-i" viewBox="0 0 18 18" fill="none">
        <g>
            <circle cx="9.00013" cy="9.00013" r="9.00013" fill="currentColor"/>
            <path d="M10.6708 3.41914C11.1207 3.70091 11.2572 4.2941 10.9754 4.74404C10.6937 5.19398 10.1005 5.33042 9.65052 5.04865C9.20049 4.76689 9.06413 4.1737 9.3459 3.72376C9.62767 3.27373 10.2209 3.13737 10.6708 3.41914Z" fill="white"/>
            <path d="M7.41121 7.46645L7.65114 7.45083H7.65105C7.84519 7.43816 8.03354 7.51983 8.15687 7.67024C8.28029 7.82065 8.32358 8.02134 8.27322 8.20918L6.92755 13.2316C6.67148 14.1873 7.77749 14.8139 9.23542 14.076C9.76858 13.8061 10.4859 13.2278 11.0517 12.6133V12.6133C11.103 12.558 11.1082 12.4743 11.0643 12.413C11.0204 12.3517 10.9395 12.3297 10.8706 12.3604C10.0467 12.7255 8.7804 13.1157 9.11262 11.8759L10.6219 6.24316L7.34432 6.46938C7.1664 6.48163 7.00849 6.58771 6.93 6.74777C6.85143 6.90793 6.86419 7.09776 6.96337 7.24591C7.06264 7.39408 7.23324 7.47809 7.41124 7.46644L7.41121 7.46645Z" fill="white"/>
        </g>
    </symbol>

    <symbol xmlns="http://www.w3.org/2000/svg" id="icon-mail" viewBox="0 0 20 20" fill="none">
        <path d="M3.38762 17.2116H16.8641C18.3712 17.2116 19.2416 16.3412 19.2416 14.6169V5.37549C19.2416 3.65942 18.363 2.78906 16.613 2.78906H3.13691C1.63869 2.78906 0.759766 3.65121 0.759766 5.37549V14.6166C0.759766 16.3491 1.64691 17.2112 3.38834 17.2112M9.00512 10.423L2.68477 4.18728C2.86869 4.11192 3.08619 4.07013 3.34584 4.07013H16.6637C16.923 4.07013 17.1491 4.11192 17.3416 4.20406L11.0301 10.4233C10.6701 10.783 10.3519 10.9423 10.0173 10.9423C9.68227 10.9423 9.36441 10.783 9.00441 10.4233M2.03977 14.6169V5.29192L6.85262 10.0133L2.04834 14.7587C2.04012 14.7169 2.04012 14.6666 2.04012 14.6166M17.9608 5.38371V14.7337L13.1812 10.013L17.9612 5.31728L17.9608 5.38371ZM3.34584 15.9312C3.10298 15.9312 2.90227 15.8976 2.72655 15.8223L7.73191 10.8751L8.2762 11.4108C8.86191 11.9883 9.42262 12.2312 10.0173 12.2312C10.603 12.2312 11.1723 11.9883 11.7583 11.4108L12.3023 10.8751L17.2998 15.8137C17.1237 15.8976 16.9062 15.9308 16.6633 15.9308L3.34584 15.9312Z" fill="currentColor"/>
        <path d="M3.38762 17.2116H16.8641C18.3712 17.2116 19.2416 16.3412 19.2416 14.6169V5.37549C19.2416 3.65942 18.363 2.78906 16.613 2.78906H3.13691C1.63869 2.78906 0.759766 3.65121 0.759766 5.37549V14.6166C0.759766 16.3491 1.64691 17.2112 3.38834 17.2112M9.00512 10.423L2.68477 4.18728C2.86869 4.11192 3.08619 4.07013 3.34584 4.07013H16.6637C16.923 4.07013 17.1491 4.11192 17.3416 4.20406L11.0301 10.4233C10.6701 10.783 10.3519 10.9423 10.0173 10.9423C9.68227 10.9423 9.36441 10.783 9.00441 10.4233M2.03977 14.6169V5.29192L6.85262 10.0133L2.04834 14.7587C2.04012 14.7169 2.04012 14.6666 2.04012 14.6166M17.9608 5.38371V14.7337L13.1812 10.013L17.9612 5.31728L17.9608 5.38371ZM3.34584 15.9312C3.10298 15.9312 2.90227 15.8976 2.72655 15.8223L7.73191 10.8751L8.27619 11.4108C8.86191 11.9883 9.42262 12.2312 10.0173 12.2312C10.603 12.2312 11.1723 11.9883 11.7583 11.4108L12.3023 10.8751L17.2998 15.8137C17.1237 15.8976 16.9062 15.9308 16.6633 15.9308L3.34584 15.9312Z" stroke="currentColor" stroke-width="0.25"/>
    </symbol>

    <symbol xmlns="http://www.w3.org/2000/svg" id="icon-kebab" viewBox="0 0 20 20" fill="none">
        <path fill-rule="evenodd" clip-rule="evenodd" d="M8.89063 15.25C8.89063 14.9516 9.00915 14.6655 9.22013 14.4545C9.43111 14.2435 9.71726 14.125 10.0156 14.125C10.314 14.125 10.6001 14.2435 10.8111 14.4545C11.0221 14.6655 11.1406 14.9516 11.1406 15.25C11.1406 15.5484 11.0221 15.8345 10.8111 16.0455C10.6001 16.2565 10.314 16.375 10.0156 16.375C9.71726 16.375 9.43111 16.2565 9.22013 16.0455C9.00915 15.8345 8.89063 15.5484 8.89063 15.25ZM10.0156 8.875C9.71726 8.875 9.43111 8.99353 9.22013 9.2045C9.00915 9.41548 8.89063 9.70163 8.89063 10C8.89063 10.2984 9.00915 10.5845 9.22013 10.7955C9.43111 11.0065 9.71726 11.125 10.0156 11.125C10.314 11.125 10.6001 11.0065 10.8111 10.7955C11.0221 10.5845 11.1406 10.2984 11.1406 10C11.1406 9.70163 11.0221 9.41548 10.8111 9.2045C10.6001 8.99353 10.314 8.875 10.0156 8.875ZM10.0156 3.625C9.71726 3.625 9.43111 3.74353 9.22013 3.9545C9.00915 4.16548 8.89063 4.45163 8.89063 4.75C8.89063 5.04837 9.00915 5.33452 9.22013 5.54549C9.43111 5.75647 9.71726 5.875 10.0156 5.875C10.314 5.875 10.6001 5.75647 10.8111 5.54549C11.0221 5.33452 11.1406 5.04837 11.1406 4.75C11.1406 4.45163 11.0221 4.16548 10.8111 3.9545C10.6001 3.74353 10.314 3.625 10.0156 3.625Z" fill="currentColor"/>
    </symbol>

    <symbol xmlns="http://www.w3.org/2000/svg" id="icon-photo" viewBox="0 0 36 36" fill="none">
        <path d="M33.6217 23.5785H29.3783V19.0855C29.3783 18.6694 29.0597 18.332 28.6667 18.332C28.2737 18.332 27.955 18.6694 27.955 19.0855V23.5785H23.7116C23.3186 23.5785 23 23.9159 23 24.332C23 24.7481 23.3186 25.0855 23.7116 25.0855H27.955V29.5785C27.955 29.9947 28.2737 30.332 28.6667 30.332C29.0597 30.332 29.3783 29.9946 29.3783 29.5785V25.0855H33.6217C34.0147 25.0855 34.3333 24.7481 34.3333 24.332C34.3333 23.9159 34.0147 23.5785 33.6217 23.5785Z" fill="currentColor"/>
        <path d="M25.2114 28.155H5.36714C4.15921 28.155 3.17638 27.1703 3.17638 25.96V12.2033C3.17638 10.993 4.15921 10.0083 5.36714 10.0083H9.34867C9.35649 10.0083 9.36381 10.0064 9.37163 10.0061C9.39873 10.0054 9.4251 10.0017 9.45196 9.99804C9.47516 9.99486 9.4986 9.99217 9.52107 9.98678C9.54451 9.98116 9.56697 9.97308 9.58968 9.9655C9.61337 9.95743 9.63705 9.95009 9.65952 9.93981C9.68125 9.93003 9.70152 9.91755 9.72227 9.90556C9.74327 9.89333 9.76476 9.88183 9.78454 9.86788C9.80456 9.85369 9.82263 9.8373 9.84119 9.82091C9.8595 9.80501 9.87806 9.7896 9.89466 9.77198C9.91053 9.7551 9.9247 9.73626 9.93935 9.71791C9.95595 9.69687 9.97231 9.67584 9.98672 9.65284C9.99087 9.64623 9.99648 9.64085 10.0004 9.634L11.023 7.88179C11.2757 7.44926 11.7431 7.18065 12.2429 7.18065H19.0914C19.5918 7.18065 20.0593 7.44952 20.3116 7.8823L21.3328 9.6335C21.3381 9.64279 21.3447 9.65062 21.3504 9.65967C21.3567 9.66971 21.3633 9.67925 21.3701 9.68879C21.3933 9.72157 21.418 9.75215 21.4453 9.78028C21.4478 9.78273 21.45 9.78567 21.4524 9.78811C21.4837 9.81918 21.5174 9.84658 21.553 9.87129C21.5611 9.87692 21.5694 9.88206 21.5777 9.88744C21.6094 9.90774 21.6421 9.9256 21.6761 9.94102C21.6829 9.94395 21.6893 9.94762 21.6961 9.95056C21.7357 9.96695 21.7764 9.97894 21.8177 9.98848C21.8285 9.99092 21.8394 9.99288 21.8504 9.99484C21.8949 10.0029 21.9398 10.0085 21.9852 10.0085H21.9867L25.966 10.0081C27.1742 10.0081 28.1568 10.9928 28.1568 12.203V15.3686C28.1568 15.7862 28.4947 16.1248 28.9115 16.1248C29.3283 16.1248 29.6663 15.7862 29.6663 15.3686L29.6665 12.2033C29.6665 10.159 28.0066 8.49566 25.966 8.49566H22.4179L21.6152 7.11923C21.0934 6.22406 20.1263 5.66797 19.0917 5.66797H12.2425C11.2087 5.66797 10.242 6.22332 9.71971 7.11773L8.9154 8.49559H5.36674C3.32638 8.49559 1.6665 10.159 1.6665 12.2032V25.9606C1.6665 28.0049 3.32644 29.668 5.36674 29.668H25.211C25.6278 29.668 25.9657 29.3294 25.9657 28.9118C25.9657 28.4942 25.6278 28.1553 25.211 28.1553L25.2114 28.155Z" fill="currentColor"/>
        <path d="M15.6667 12.3301C11.9905 12.3301 9 15.3209 9 18.9967C9 22.6726 11.9908 25.6634 15.6667 25.6634C19.3425 25.6634 22.3333 22.6726 22.3333 18.9967C22.3333 15.3209 19.3425 12.3301 15.6667 12.3301ZM15.6667 24.1387C12.8315 24.1387 10.525 21.8321 10.525 18.997C10.525 16.1619 12.8316 13.8555 15.6667 13.8555C18.5018 13.8555 20.8084 16.1622 20.8084 18.9972C20.8081 21.8321 18.5015 24.1387 15.6667 24.1387Z" fill="currentColor"/>
    </symbol>

    <symbol xmlns="http://www.w3.org/2000/svg" id="icon-menu-account-2" viewBox="0 0 24 24" fill="none">
        <path d="M12.0004 7.73372V12.0004L14.1337 14.1337M21.6004 12.0004C21.6004 17.3023 17.3023 21.6004 12.0004 21.6004C6.69846 21.6004 2.40039 17.3023 2.40039 12.0004C2.40039 6.69846 6.69846 2.40039 12.0004 2.40039C17.3023 2.40039 21.6004 6.69846 21.6004 12.0004Z" stroke="currentColor" stroke-width="2" stroke-linecap="round" stroke-linejoin="round"/>
    </symbol>

    <symbol xmlns="http://www.w3.org/2000/svg" id="icon-menu-account-3" viewBox="0 0 24 24" fill="none">
        <g clip-path="url(#clip0_7635_62576)">
            <path d="M2.7969 12.0572L11.9992 21.6004L21.2015 12.0572C22.2245 10.9964 22.7992 9.55754 22.7992 8.05725C22.7992 4.93305 20.357 2.40039 17.3444 2.40039C15.8977 2.40039 14.5102 2.99638 13.4873 4.05724L11.9992 5.60039L10.5112 4.05725C9.48821 2.99638 8.10075 2.40039 6.65404 2.40039C3.64143 2.40039 1.19922 4.93305 1.19922 8.05725C1.19922 9.55754 1.77392 10.9964 2.7969 12.0572Z" stroke="currentColor" stroke-width="2" stroke-linecap="round" stroke-linejoin="round"/>
        </g>
        <defs>
            <clipPath id="clip0_7635_62576">
                <rect width="24" height="24" fill="white" transform="matrix(-1 0 0 1 24 0)"/>
            </clipPath>
        </defs>
    </symbol>

    <symbol xmlns="http://www.w3.org/2000/svg" id="icon-menu-account-4" viewBox="0 0 24 24" fill="none">
        <path d="M7.20039 7.20039H16.8004M7.20039 12.0004H13.2004M6.00039 16.8004V22.8004L12.0004 16.8004H21.6004V2.40039H2.40039V16.8004H6.00039Z" stroke="currentColor" stroke-width="2" stroke-linecap="round" stroke-linejoin="round"/>
    </symbol>

    <symbol xmlns="http://www.w3.org/2000/svg" id="icon-plus" viewBox="0 0 16 16" fill="none">
        <path d="M12.4442 7.5836H8.41645V3.55583C8.41645 3.44532 8.37255 3.33934 8.29441 3.2612C8.21627 3.18306 8.11029 3.13916 7.99978 3.13916C7.88928 3.13916 7.7833 3.18306 7.70516 3.2612C7.62702 3.33934 7.58312 3.44532 7.58312 3.55583V7.5836H3.55534C3.44483 7.5836 3.33885 7.6275 3.26071 7.70564C3.18257 7.78378 3.13867 7.88976 3.13867 8.00027C3.13867 8.11078 3.18257 8.21676 3.26071 8.2949C3.33885 8.37304 3.44483 8.41694 3.55534 8.41694H7.58312V12.4447C7.58312 12.5552 7.62702 12.6612 7.70516 12.7393C7.7833 12.8175 7.88928 12.8614 7.99978 12.8614C8.11029 12.8614 8.21627 12.8175 8.29441 12.7393C8.37255 12.6612 8.41645 12.5552 8.41645 12.4447V8.41694H12.4442C12.5547 8.41694 12.6607 8.37304 12.7389 8.2949C12.817 8.21676 12.8609 8.11078 12.8609 8.00027C12.8609 7.88976 12.817 7.78378 12.7389 7.70564C12.6607 7.6275 12.5547 7.5836 12.4442 7.5836Z" fill="currentColor"/>
    </symbol>

    <symbol xmlns="http://www.w3.org/2000/svg" id="icon-minus" viewBox="0 0 16 16" fill="none">
        <path d="M12.4442 8.41683H3.55534C3.44483 8.41683 3.33885 8.37293 3.26071 8.29479C3.18257 8.21665 3.13867 8.11067 3.13867 8.00016C3.13867 7.88966 3.18257 7.78368 3.26071 7.70554C3.33885 7.62739 3.44483 7.5835 3.55534 7.5835H12.4442C12.5547 7.5835 12.6607 7.62739 12.7389 7.70554C12.817 7.78368 12.8609 7.88966 12.8609 8.00016C12.8609 8.11067 12.817 8.21665 12.7389 8.29479C12.6607 8.37293 12.5547 8.41683 12.4442 8.41683Z" fill="currentColor"/>
    </symbol>

    <symbol xmlns="http://www.w3.org/2000/svg" id="icon-list" viewBox="0 0 18 18" fill="none">
        <path d="M5 4.5H16M5 8.99439H16M5 13.4888H16M2 4.5V4.51123M2 8.99439V9.00561M2 13.4888V13.5" stroke="currentColor" stroke-width="1.4" stroke-linecap="round" stroke-linejoin="round"/>
    </symbol>

    <symbol xmlns="http://www.w3.org/2000/svg" id="icon-slider" viewBox="0 0 24 24" fill="none">
        <path d="M12 10.25C12.4142 10.25 12.75 10.5858 12.75 11V16.25C12.75 16.6642 12.4142 17 12 17 11.5858 17 11.25 16.6642 11.25 16.25V11C11.25 10.5858 11.5858 10.25 12 10.25zM12 9C12.5523 9 13 8.55228 13 8 13 7.44772 12.5523 7 12 7 11.4477 7 11 7.44772 11 8 11 8.55228 11.4477 9 12 9z" fill="currentColor"/>
        <path fill-rule="evenodd" clip-rule="evenodd" d="M12 22C17.5228 22 22 17.5228 22 12C22 6.47715 17.5228 2 12 2C6.47715 2 2 6.47715 2 12C2 17.5228 6.47715 22 12 22ZM12 20.5C16.6944 20.5 20.5 16.6944 20.5 12C20.5 7.30558 16.6944 3.5 12 3.5C7.30558 3.5 3.5 7.30558 3.5 12C3.5 16.6944 7.30558 20.5 12 20.5Z" fill="currentColor"/>
    </symbol>

    <symbol xmlns="http://www.w3.org/2000/svg" id="three-dots" viewBox="0 0 24 24" fill="none">
        <path fill-rule="evenodd" clip-rule="evenodd" d="M18 14a2 2 0 1 1 0-4 2 2 0 0 1 0 4Zm-6 0a2 2 0 1 1 0-4 2 2 0 0 1 0 4Zm-8-2a2 2 0 1 0 4 0 2 2 0 0 0-4 0Z" fill="currentColor"/>
    </symbol>

    <symbol xmlns="http://www.w3.org/2000/svg" id="icon-pills" viewBox="0 0 64 64" fill="none">
        <path fill-rule="evenodd" clip-rule="evenodd" d="M18.6699 9.33203H40.0029C40.7103 9.33203 41.3886 9.61302 41.8888 10.1132C42.3889 10.6133 42.6699 11.2917 42.6699 11.999V15.047C42.6697 15.7542 42.3886 16.4323 41.8884 16.9322C41.3883 17.4322 40.7101 17.713 40.0029 17.713H38.6699V20.491C40.5339 20.8067 42.2259 21.7721 43.4461 23.2161C44.6663 24.6601 45.3358 26.4895 45.3359 28.38V29.999C45.3359 30.1741 45.3015 30.3474 45.2345 30.5091C45.1675 30.6709 45.0693 30.8178 44.9455 30.9416C44.8217 31.0654 44.6748 31.1636 44.5131 31.2306C44.3513 31.2976 44.178 31.332 44.0029 31.332C43.8279 31.332 43.6545 31.2976 43.4928 31.2306C43.3311 31.1636 43.1841 31.0654 43.0604 30.9416C42.9366 30.8178 42.8384 30.6709 42.7714 30.5091C42.7044 30.3474 42.6699 30.1741 42.6699 29.999V28.379C42.6698 27.6787 42.5317 26.9852 42.2636 26.3383C41.9955 25.6913 41.6025 25.1034 41.1072 24.6083C40.6119 24.1132 40.0239 23.7205 39.3769 23.4526C38.7298 23.1847 38.0363 23.0469 37.3359 23.047H21.3359C19.9217 23.047 18.5654 23.6088 17.5653 24.6087C16.5652 25.6086 16.0032 26.9648 16.0029 28.379V31.046H31.4699C31.8235 31.046 32.1625 31.1865 32.4125 31.4365C32.6625 31.6864 32.8029 32.0255 32.8029 32.379C32.8029 32.7326 32.6625 33.0716 32.4125 33.3216C32.1625 33.5716 31.8235 33.712 31.4699 33.712H16.0029V48.379C16.0029 48.7293 16.0719 49.0761 16.2059 49.3996C16.34 49.7232 16.5364 50.0172 16.7841 50.2649C17.0317 50.5125 17.3257 50.709 17.6493 50.843C17.9729 50.977 18.3197 51.046 18.6699 51.046H34.6699C35.0235 51.046 35.3625 51.1865 35.6125 51.4365C35.8625 51.6864 36.0029 52.0255 36.0029 52.379C36.0029 52.7326 35.8625 53.0716 35.6125 53.3216C35.3625 53.5716 35.0235 53.712 34.6699 53.712H18.6699C17.9695 53.7122 17.2759 53.5743 16.6288 53.3064C15.9816 53.0384 15.3936 52.6456 14.8983 52.1504C14.403 51.6552 14.0101 51.0672 13.742 50.4201C13.4739 49.773 13.3359 49.0795 13.3359 48.379V28.379C13.3361 26.4884 14.0058 24.6589 15.2261 23.2148C16.4465 21.7708 18.1388 20.8055 20.0029 20.49V17.713H18.6699C17.9628 17.713 17.2846 17.4322 16.7844 16.9322C16.2843 16.4323 16.0032 15.7542 16.0029 15.047V11.999C16.0029 11.6488 16.0719 11.302 16.2059 10.9784C16.34 10.6548 16.5364 10.3608 16.7841 10.1132C17.0317 9.86552 17.3257 9.66907 17.6493 9.53504C17.9729 9.40102 18.3197 9.33203 18.6699 9.33203ZM22.6699 17.713V20.38H36.0029V17.713H22.6699ZM40.0029 11.999H18.6699V15.047H40.0029V11.999Z" fill="currentColor"/>
        <path fill-rule="evenodd" clip-rule="evenodd" d="M37.1606 49.9057C40.9476 54.4187 47.6756 55.0077 52.1886 51.2207C53.263 50.3213 54.1491 49.2186 54.7961 47.9758C55.443 46.733 55.8381 45.3746 55.9586 43.9787C56.0819 42.5832 55.9285 41.1772 55.507 39.8412C55.0856 38.5053 54.4044 37.2657 53.5026 36.1937C49.7166 31.6807 42.9886 31.0917 38.4756 34.8787C37.4013 35.7779 36.5153 36.8805 35.8683 38.1231C35.2214 39.3658 34.8262 40.7239 34.7056 42.1197C34.5819 43.5152 34.7352 44.9214 35.1565 46.2576C35.5778 47.5937 36.2588 48.8335 37.1606 49.9057ZM50.4746 49.1777C49.6698 49.853 48.7398 50.3632 47.7379 50.6792C46.7359 50.9951 45.6815 51.1106 44.6349 51.0191C43.5882 50.9275 42.5699 50.6307 41.638 50.1456C40.7061 49.6604 39.8789 48.9965 39.2036 48.1917C38.1333 46.9209 37.4874 45.347 37.3566 43.6907L53.0746 45.0657C52.6583 46.6741 51.7492 48.112 50.4746 49.1777ZM37.5886 41.0337C38.0639 39.2029 39.1726 37.5997 40.7178 36.5088C42.263 35.4178 44.1447 34.9097 46.029 35.0745C47.9133 35.2394 49.6783 36.0665 51.0106 37.4092C52.3429 38.7518 53.1563 40.5232 53.3066 42.4087L37.5886 41.0337Z" fill="currentColor"/>
    </symbol>

    <symbol xmlns="http://www.w3.org/2000/svg" id="icon-pill" viewBox="0 0 64 64" fill="none">
        <path d="M50.3787 13.6126C45.4317 8.66559 37.4117 8.66559 32.4657 13.6126L13.6158 32.4616C8.66975 37.4076 8.66975 45.4276 13.6158 50.3746C18.3428 55.1006 25.8727 55.3116 30.8497 51.0076C30.9822 50.8931 31.0908 50.7536 31.1693 50.5971C31.2478 50.4406 31.2948 50.2702 31.3075 50.0956C31.3201 49.921 31.2983 49.7456 31.2432 49.5794C31.1881 49.4132 31.1008 49.2595 30.9862 49.1271C30.8717 48.9947 30.7323 48.8861 30.5758 48.8075C30.4193 48.729 30.2489 48.6821 30.0743 48.6694C29.8996 48.6567 29.7242 48.6785 29.5581 48.7337C29.3919 48.7888 29.2382 48.8761 29.1057 48.9906C25.1777 52.3866 19.2327 52.2196 15.5017 48.4886C11.5968 44.5836 11.5968 38.2526 15.5017 34.3466L23.9838 25.8656L28.8567 30.7386C28.9806 30.8624 29.1276 30.9607 29.2894 31.0277C29.4512 31.0947 29.6246 31.1292 29.7997 31.1292C29.9749 31.1292 30.1483 31.0947 30.3101 31.0277C30.4719 30.9607 30.6189 30.8624 30.7428 30.7386C30.8666 30.6148 30.9648 30.4677 31.0318 30.3059C31.0989 30.1441 31.1334 29.9707 31.1334 29.7956C31.1334 29.6205 31.0989 29.447 31.0318 29.2852C30.9648 29.1234 30.8666 28.9764 30.7428 28.8526L25.8698 23.9796L34.3507 15.4976C38.2557 11.5926 44.5877 11.5926 48.4927 15.4976C49.891 16.8952 50.8438 18.6758 51.2307 20.6146C51.6176 22.5534 51.4214 24.5633 50.6667 26.3906C50.5318 26.7175 50.5321 27.0846 50.6678 27.4112C50.8035 27.7378 51.0634 27.9971 51.3903 28.1321C51.7171 28.2671 52.0842 28.2667 52.4108 28.131C52.7374 27.9953 52.9968 27.7355 53.1317 27.4086C55.0247 22.8216 54.1097 17.3436 50.3787 13.6126Z" fill="currentColor"/>
        <path fill-rule="evenodd" clip-rule="evenodd" d="M42.6582 27.3398C35.6632 27.3398 29.9922 33.0108 29.9922 40.0068C29.9922 47.0018 35.6622 52.6728 42.6582 52.6728C49.6542 52.6728 55.3252 47.0028 55.3252 40.0068C55.3252 33.0108 49.6552 27.3398 42.6582 27.3398ZM32.6582 40.0068C32.6582 34.9358 36.4332 30.7468 41.3252 30.0948V49.9178C36.4332 49.2668 32.6582 45.0778 32.6582 40.0068ZM52.6582 40.0068C52.6582 45.0768 48.8842 49.2668 43.9922 49.9178V30.0948C48.8842 30.7458 52.6582 34.9348 52.6582 40.0068Z" fill="currentColor"/>
    </symbol>

    <symbol xmlns="http://www.w3.org/2000/svg" id="icon-leave-order" viewBox="0 0 13 16" fill="none">
        <path d="M1.625 16C1.17812 16 0.795573 15.8433 0.477344 15.53C0.159115 15.2167 0 14.84 0 14.4V4.8L4.875 0H11.375C11.8219 0 12.2044 0.156667 12.5227 0.47C12.8409 0.783333 13 1.16 13 1.6V14.4C13 14.84 12.8409 15.2167 12.5227 15.53C12.2044 15.8433 11.8219 16 11.375 16H1.625ZM6.5 12C6.73021 12 6.92318 11.9233 7.07891 11.77C7.23464 11.6167 7.3125 11.4267 7.3125 11.2C7.3125 10.9733 7.23464 10.7833 7.07891 10.63C6.92318 10.4767 6.73021 10.4 6.5 10.4C6.26979 10.4 6.07682 10.4767 5.92109 10.63C5.76536 10.7833 5.6875 10.9733 5.6875 11.2C5.6875 11.4267 5.76536 11.6167 5.92109 11.77C6.07682 11.9233 6.26979 12 6.5 12ZM5.6875 8.8H7.3125V4.8H5.6875V8.8Z" fill="#FF3C6B"/>
    </symbol>

    <symbol xmlns="http://www.w3.org/2000/svg" id="icon-prev-map" viewBox="0 0 24 24" fill="currentColor">
        <path d="M19,11H7.14l3.63-4.36A1,1,0,1,0,9.23,5.36l-5,6a1.19,1.19,0,0,0-.09.15c0,.05,0,.08-.07.13A1,1,0,0,0,4,12H4a1,1,0,0,0,.07.36c0,.05,0,.08.07.13a1.19,1.19,0,0,0,.09.15l5,6A1,1,0,0,0,10,19a1,1,0,0,0,.64-.23,1,1,0,0,0,.13-1.41L7.14,13H19a1,1,0,0,0,0-2Z"/>
    </symbol>

    <symbol xmlns="http://www.w3.org/2000/svg" id="icon-minus-map" viewBox="0 0 16 2" fill="none">
        <path d="M1.25 1H14.75" stroke="currentColor" stroke-width="2" stroke-linecap="round" stroke-linejoin="round"/>
    </symbol>

    <symbol xmlns="http://www.w3.org/2000/svg" id="icon-plus-map" viewBox="0 0 16 16" fill="none">
        <path d="M8 1.25V14.75" stroke="currentColor" stroke-width="2" stroke-linecap="round" stroke-linejoin="round"/>
        <path d="M1.25 8H14.75" stroke="currentColor" stroke-width="2" stroke-linecap="round" stroke-linejoin="round"/>
    </symbol>

    <symbol xmlns="http://www.w3.org/2000/svg" id="icon-percent" viewBox="0 0 24 24" fill="none">
        <path fill-rule="evenodd" clip-rule="evenodd" d="M19.7071 4.29289C20.0976 4.68342 20.0976 5.31658 19.7071 5.70711L5.70711 19.7071C5.31658 20.0976 4.68342 20.0976 4.29289 19.7071C3.90237 19.3166 3.90237 18.6834 4.29289 18.2929L18.2929 4.29289C18.6834 3.90237 19.3166 3.90237 19.7071 4.29289Z" fill="currentColor"/>
        <path fill-rule="evenodd" clip-rule="evenodd" d="M6.5 5C5.67157 5 5 5.67157 5 6.5C5 7.32843 5.67157 8 6.5 8C7.32843 8 8 7.32843 8 6.5C8 5.67157 7.32843 5 6.5 5ZM3 6.5C3 4.567 4.567 3 6.5 3C8.433 3 10 4.567 10 6.5C10 8.433 8.433 10 6.5 10C4.567 10 3 8.433 3 6.5Z" fill="currentColor"/>
        <path fill-rule="evenodd" clip-rule="evenodd" d="M17.5 16C16.6716 16 16 16.6716 16 17.5C16 18.3284 16.6716 19 17.5 19C18.3284 19 19 18.3284 19 17.5C19 16.6716 18.3284 16 17.5 16ZM14 17.5C14 15.567 15.567 14 17.5 14C19.433 14 21 15.567 21 17.5C21 19.433 19.433 21 17.5 21C15.567 21 14 19.433 14 17.5Z" fill="currentColor"/>
    </symbol>



    <symbol xmlns="http://www.w3.org/2000/svg" id="icon-home-fill" viewBox="0 0 24 24" fill="none">
        <path d="M2 20.6625V10.3768C2 10.0149 2.08875 9.67205 2.26625 9.34824C2.44375 9.02443 2.68833 8.75776 3 8.54824L10.5 3.40539C10.9375 3.10062 11.4375 2.94824 12 2.94824C12.5625 2.94824 13.0625 3.10062 13.5 3.40539L21 8.54824C21.3125 8.75776 21.5575 9.02443 21.735 9.34824C21.9125 9.67205 22.0008 10.0149 22 10.3768V20.6625C22 21.2911 21.755 21.8294 21.265 22.2774C20.775 22.7254 20.1867 22.949 19.5 22.9482H15.75C15.3958 22.9482 15.0992 22.8385 14.86 22.6191C14.6208 22.3997 14.5008 22.1284 14.5 21.8054V16.5397C14.5 16.2159 14.38 15.9447 14.14 15.726C13.9 15.5074 13.6033 15.3976 13.25 15.3969H10.75C10.3958 15.3969 10.0992 15.5066 9.86 15.726C9.62083 15.9454 9.50083 16.2167 9.5 16.5397V21.8054C9.5 22.1292 9.38 22.4008 9.14 22.6202C8.9 22.8397 8.60333 22.949 8.25 22.9482H4.5C3.8125 22.9482 3.22417 22.7246 2.735 22.2774C2.24583 21.8301 2.00083 21.2919 2 20.6625Z" fill="currentColor"/>
    </symbol>


    <symbol xmlns="http://www.w3.org/2000/svg" id="icon-catalog-fill" viewBox="0 0 24 24" fill="none">
        <rect x="2" y="13" width="9" height="9" rx="2.77774" fill="currentColor"/>
        <rect x="2" y="2" width="9" height="9" rx="2.70849" fill="currentColor"/>
        <rect x="13" y="13" width="9" height="9" rx="2.77774" fill="currentColor"/>
        <rect x="13" y="2" width="9" height="9" rx="2.77774" fill="currentColor"/>
    </symbol>

    <symbol xmlns="http://www.w3.org/2000/svg" id="icon-cart-fill" viewBox="0 0 24 24" fill="none">
        <path fill-rule="evenodd" clip-rule="evenodd" d="M6.22692 5.97565L5.73035 4.56083C5.61891 4.20742 5.33016 3.44537 5.06663 3.22442C4.73721 2.94824 4.53401 2.94824 3.92462 2.94824H2.75048C2.4862 2.94824 2.23336 3.04857 2.04742 3.22622C1.8616 3.40375 1.75781 3.64386 1.75781 3.89352C1.75781 4.14319 1.8616 4.38329 2.04742 4.56083C2.23336 4.73847 2.4862 4.8388 2.75048 4.8388H3.96324L6.81946 14.4847C6.93379 14.9249 7.1726 15.4394 7.47916 15.9156C7.7859 16.3921 8.15585 16.8231 8.52796 17.1008C8.89155 17.3722 9.37341 17.4933 9.83427 17.545C10.2032 17.5862 10.5483 17.5822 10.7991 17.5793C10.8613 17.5785 10.9177 17.5779 10.9672 17.578H16.6851C17.6512 17.5812 18.5897 17.2702 19.3458 16.6966C20.1017 16.1231 20.6303 15.3215 20.8454 14.4238L20.8466 14.4196L21.9325 9.1536L21.9712 8.99511C22.0843 8.46944 22.2851 7.37353 22.236 6.96739C22.2326 6.94498 22.2286 6.92288 22.2242 6.9011C22.1701 6.63162 22.0499 6.41436 21.8354 6.25781C21.619 6.0998 21.2956 5.99565 20.8203 5.97565H6.22692Z" fill="currentColor"/>
        <path d="M10.1106 22.9479C11.1145 22.9479 11.9284 22.1341 11.9284 21.1302C11.9284 20.1263 11.1145 19.3125 10.1106 19.3125C9.10678 19.3125 8.29297 20.1263 8.29297 21.1302C8.29297 22.1341 9.10678 22.9479 10.1106 22.9479Z" fill="currentColor"/>
        <path d="M15.9935 22.9479C16.9974 22.9479 17.8111 22.1341 17.8111 21.1302C17.8111 20.1263 16.9974 19.3125 15.9935 19.3125C14.9896 19.3125 14.1758 20.1263 14.1758 21.1302C14.1758 22.1341 14.9896 22.9479 15.9935 22.9479Z" fill="currentColor"/>

    </symbol>

    <symbol xmlns="http://www.w3.org/2000/svg" id="icon-user-fill" viewBox="0 0 24 24" fill="none">
        <path d="M9.01971 14.4053C10.5432 14.2554 14.2589 14.228 15.6919 14.5267C18.1456 15.0396 20.2066 17.0223 20.7391 19.3905C21.1194 21.0828 20.8779 22.5418 18.9023 22.9476L4.79863 22.8845C3.08567 22.3395 2.92589 20.9876 3.24793 19.4631C3.80281 16.8402 6.24157 14.6779 9.01971 14.4053Z" fill="currentColor"/>
        <path d="M11.4474 2.98071C18.1951 2.30475 18.8901 12.4024 12.4875 12.9499C5.88506 13.514 5.06749 3.61977 11.4474 2.98071Z" fill="currentColor"/>
    </symbol>


    <symbol xmlns="http://www.w3.org/2000/svg" id="icon-location-fill" viewBox="0 0 12 12" fill="none">
        <path d="M6 6.23186C5.6448 6.23186 5.30415 6.09076 5.05298 5.8396C4.80182 5.58843 4.66071 5.24778 4.66071 4.89258C4.66071 4.53738 4.80182 4.19672 5.05298 3.94556C5.30415 3.6944 5.6448 3.55329 6 3.55329C6.3552 3.55329 6.69585 3.6944 6.94702 3.94556C7.19818 4.19672 7.33929 4.53738 7.33929 4.89258C7.33929 5.06846 7.30464 5.24261 7.23734 5.4051C7.17003 5.56759 7.07138 5.71523 6.94702 5.8396C6.82265 5.96396 6.67501 6.06261 6.51252 6.12992C6.35003 6.19722 6.17588 6.23186 6 6.23186ZM6 1.14258C5.00544 1.14258 4.05161 1.53767 3.34835 2.24093C2.64509 2.94419 2.25 3.89802 2.25 4.89258C2.25 7.70508 6 11.8569 6 11.8569C6 11.8569 9.75 7.70508 9.75 4.89258C9.75 3.89802 9.35491 2.94419 8.65165 2.24093C7.94839 1.53767 6.99456 1.14258 6 1.14258Z" fill="currentColor"/>
    </symbol>

    <symbol xmlns="http://www.w3.org/2000/svg" id="breadcrumbs-arrow" viewBox="0 0 8 14" fill="none">
        <path d="M1 13L7 7L1 1" stroke="currentColor" stroke-width="2" stroke-linecap="round" stroke-linejoin="round"/>
    </symbol>

    <symbol xmlns="http://www.w3.org/2000/svg" viewBox="0 0 24 24" id="btn-view-grid" fill="none">
        <path fill-rule="evenodd" clip-rule="evenodd" d="M17.032 3H16.968C16.5294 2.99999 16.1509 2.99998 15.8376 3.02135C15.5078 3.04386 15.1779 3.09336 14.852 3.22836C14.1169 3.53285 13.5328 4.11687 13.2284 4.85195C13.0934 5.17788 13.0439 5.50779 13.0214 5.83762C13 6.15087 13 6.52934 13 6.96797V7.03198C13 7.47062 13 7.84914 13.0214 8.16238C13.0439 8.49221 13.0934 8.82212 13.2284 9.14805C13.5328 9.88314 14.1169 10.4672 14.852 10.7716C15.1779 10.9066 15.5078 10.9561 15.8376 10.9787C16.1509 11 16.5293 11 16.968 11H17.032C17.4706 11 17.8491 11 18.1624 10.9787C18.4922 10.9561 18.8221 10.9066 19.1481 10.7716C19.8831 10.4672 20.4672 9.88314 20.7716 9.14805C20.9066 8.82212 20.9561 8.49221 20.9787 8.16238C21 7.84913 21 7.47064 21 7.03199V6.96801C21 6.52936 21 6.15088 20.9787 5.83762C20.9561 5.50779 20.9066 5.17788 20.7716 4.85195C20.4672 4.11687 19.8831 3.53285 19.1481 3.22836C18.8221 3.09336 18.4922 3.04386 18.1624 3.02135C17.8491 2.99998 17.4706 2.99999 17.032 3ZM15.6173 5.07612C15.6589 5.05889 15.7458 5.03227 15.9738 5.01671C16.2107 5.00054 16.5204 5 17 5C17.4796 5 17.7893 5.00054 18.0262 5.01671C18.2542 5.03227 18.3411 5.05889 18.3827 5.07612C18.6277 5.17762 18.8224 5.37229 18.9239 5.61732C18.9411 5.65893 18.9677 5.74576 18.9833 5.97376C18.9995 6.21074 19 6.52038 19 7C19 7.47963 18.9995 7.78926 18.9833 8.02624C18.9677 8.25424 18.9411 8.34107 18.9239 8.38269C18.8224 8.62771 18.6277 8.82239 18.3827 8.92388C18.3411 8.94112 18.2542 8.96774 18.0262 8.98329C17.7893 8.99946 17.4796 9 17 9C16.5204 9 16.2107 8.99946 15.9738 8.98329C15.7458 8.96774 15.6589 8.94112 15.6173 8.92388C15.3723 8.82239 15.1776 8.62771 15.0761 8.38269C15.0589 8.34107 15.0323 8.25424 15.0167 8.02624C15.0005 7.78926 15 7.47963 15 7C15 6.52038 15.0005 6.21074 15.0167 5.97376C15.0323 5.74576 15.0589 5.65893 15.0761 5.61732C15.1776 5.37229 15.3723 5.17762 15.6173 5.07612Z" fill="currentColor"/>
        <path fill-rule="evenodd" clip-rule="evenodd" d="M6.96802 13H7.03199C7.47062 13 7.84914 13 8.16238 13.0214C8.49221 13.0439 8.82212 13.0934 9.14805 13.2284C9.88314 13.5328 10.4672 14.1169 10.7716 14.852C10.9066 15.1779 10.9561 15.5078 10.9787 15.8376C11 16.1509 11 16.5293 11 16.968V17.032C11 17.4706 11 17.8491 10.9787 18.1624C10.9561 18.4922 10.9066 18.8221 10.7716 19.1481C10.4672 19.8831 9.88314 20.4672 9.14805 20.7716C8.82212 20.9066 8.49221 20.9561 8.16238 20.9787C7.84913 21 7.47064 21 7.03199 21H6.96801C6.52936 21 6.15088 21 5.83762 20.9787C5.50779 20.9561 5.17788 20.9066 4.85195 20.7716C4.11687 20.4672 3.53285 19.8831 3.22836 19.1481C3.09336 18.8221 3.04386 18.4922 3.02135 18.1624C2.99998 17.8491 2.99999 17.4707 3 17.032V16.968C2.99999 16.5294 2.99998 16.1509 3.02135 15.8376C3.04386 15.5078 3.09336 15.1779 3.22836 14.852C3.53285 14.1169 4.11687 13.5328 4.85195 13.2284C5.17788 13.0934 5.50779 13.0439 5.83762 13.0214C6.15087 13 6.52939 13 6.96802 13ZM5.97376 15.0167C5.74576 15.0323 5.65893 15.0589 5.61732 15.0761C5.37229 15.1776 5.17762 15.3723 5.07612 15.6173C5.05889 15.6589 5.03227 15.7458 5.01671 15.9738C5.00054 16.2107 5 16.5204 5 17C5 17.4796 5.00054 17.7893 5.01671 18.0262C5.03227 18.2542 5.05889 18.3411 5.07612 18.3827C5.17762 18.6277 5.37229 18.8224 5.61732 18.9239C5.65893 18.9411 5.74576 18.9677 5.97376 18.9833C6.21074 18.9995 6.52038 19 7 19C7.47963 19 7.78926 18.9995 8.02624 18.9833C8.25424 18.9677 8.34107 18.9411 8.38269 18.9239C8.62771 18.8224 8.82239 18.6277 8.92388 18.3827C8.94112 18.3411 8.96774 18.2542 8.98329 18.0262C8.99946 17.7893 9 17.4796 9 17C9 16.5204 8.99946 16.2107 8.98329 15.9738C8.96774 15.7458 8.94112 15.6589 8.92388 15.6173C8.82239 15.3723 8.62771 15.1776 8.38269 15.0761C8.34107 15.0589 8.25424 15.0323 8.02624 15.0167C7.78926 15.0005 7.47963 15 7 15C6.52038 15 6.21074 15.0005 5.97376 15.0167Z" fill="currentColor"/>
        <path fill-rule="evenodd" clip-rule="evenodd" d="M16.968 13H17.032C17.4706 13 17.8491 13 18.1624 13.0214C18.4922 13.0439 18.8221 13.0934 19.1481 13.2284C19.8831 13.5328 20.4672 14.1169 20.7716 14.852C20.9066 15.1779 20.9561 15.5078 20.9787 15.8376C21 16.1509 21 16.5294 21 16.968V17.032C21 17.4706 21 17.8491 20.9787 18.1624C20.9561 18.4922 20.9066 18.8221 20.7716 19.1481C20.4672 19.8831 19.8831 20.4672 19.1481 20.7716C18.8221 20.9066 18.4922 20.9561 18.1624 20.9787C17.8491 21 17.4706 21 17.032 21H16.968C16.5294 21 16.1509 21 15.8376 20.9787C15.5078 20.9561 15.1779 20.9066 14.852 20.7716C14.1169 20.4672 13.5328 19.8831 13.2284 19.1481C13.0934 18.8221 13.0439 18.4922 13.0214 18.1624C13 17.8491 13 17.4707 13 17.032V16.968C13 16.5294 13 16.1509 13.0214 15.8376C13.0439 15.5078 13.0934 15.1779 13.2284 14.852C13.5328 14.1169 14.1169 13.5328 14.852 13.2284C15.1779 13.0934 15.5078 13.0439 15.8376 13.0214C16.1509 13 16.5294 13 16.968 13ZM15.9738 15.0167C15.7458 15.0323 15.6589 15.0589 15.6173 15.0761C15.3723 15.1776 15.1776 15.3723 15.0761 15.6173C15.0589 15.6589 15.0323 15.7458 15.0167 15.9738C15.0005 16.2107 15 16.5204 15 17C15 17.4796 15.0005 17.7893 15.0167 18.0262C15.0323 18.2542 15.0589 18.3411 15.0761 18.3827C15.1776 18.6277 15.3723 18.8224 15.6173 18.9239C15.6589 18.9411 15.7458 18.9677 15.9738 18.9833C16.2107 18.9995 16.5204 19 17 19C17.4796 19 17.7893 18.9995 18.0262 18.9833C18.2542 18.9677 18.3411 18.9411 18.3827 18.9239C18.6277 18.8224 18.8224 18.6277 18.9239 18.3827C18.9411 18.3411 18.9677 18.2542 18.9833 18.0262C18.9995 17.7893 19 17.4796 19 17C19 16.5204 18.9995 16.2107 18.9833 15.9738C18.9677 15.7458 18.9411 15.6589 18.9239 15.6173C18.8224 15.3723 18.6277 15.1776 18.3827 15.0761C18.3411 15.0589 18.2542 15.0323 18.0262 15.0167C17.7893 15.0005 17.4796 15 17 15C16.5204 15 16.2107 15.0005 15.9738 15.0167Z" fill="currentColor"/>
        <path fill-rule="evenodd" clip-rule="evenodd" d="M6.96802 3H7.03198C7.47064 2.99999 7.84913 2.99998 8.16238 3.02135C8.49221 3.04386 8.82212 3.09336 9.14805 3.22836C9.88314 3.53284 10.4672 4.11687 10.7716 4.85195C10.9066 5.17788 10.9561 5.50779 10.9787 5.83762C11 6.15088 11 6.52936 11 6.96801V7.03199C11 7.47064 11 7.84913 10.9787 8.16238C10.9561 8.49221 10.9066 8.82212 10.7716 9.14805C10.4672 9.88314 9.88314 10.4672 9.14805 10.7716C8.82212 10.9066 8.49221 10.9561 8.16238 10.9787C7.84913 11 7.47064 11 7.03199 11H6.96801C6.52936 11 6.15088 11 5.83762 10.9787C5.50779 10.9561 5.17788 10.9066 4.85195 10.7716C4.11687 10.4672 3.53284 9.88314 3.22836 9.14805C3.09336 8.82212 3.04386 8.49221 3.02135 8.16238C2.99998 7.84913 2.99999 7.47064 3 7.03198V6.96802C2.99999 6.52937 2.99998 6.15088 3.02135 5.83762C3.04386 5.50779 3.09336 5.17788 3.22836 4.85195C3.53284 4.11687 4.11687 3.53284 4.85195 3.22836C5.17788 3.09336 5.50779 3.04386 5.83762 3.02135C6.15088 2.99998 6.52937 2.99999 6.96802 3ZM5.97376 5.01671C5.74576 5.03227 5.65893 5.05888 5.61732 5.07612C5.37229 5.17762 5.17762 5.37229 5.07612 5.61732C5.05888 5.65893 5.03227 5.74576 5.01671 5.97376C5.00054 6.21074 5 6.52038 5 7C5 7.47963 5.00054 7.78926 5.01671 8.02624C5.03227 8.25424 5.05888 8.34107 5.07612 8.38268C5.17762 8.62771 5.37229 8.82239 5.61732 8.92388C5.65893 8.94112 5.74576 8.96773 5.97376 8.98329C6.21074 8.99946 6.52038 9 7 9C7.47963 9 7.78926 8.99946 8.02624 8.98329C8.25424 8.96773 8.34107 8.94112 8.38268 8.92388C8.62771 8.82239 8.82239 8.62771 8.92388 8.38268C8.94112 8.34107 8.96773 8.25424 8.98329 8.02624C8.99946 7.78926 9 7.47963 9 7C9 6.52038 8.99946 6.21074 8.98329 5.97376C8.96773 5.74576 8.94112 5.65893 8.92388 5.61732C8.82239 5.37229 8.62771 5.17762 8.38268 5.07612C8.34107 5.05888 8.25424 5.03227 8.02624 5.01671C7.78926 5.00054 7.47963 5 7 5C6.52038 5 6.21074 5.00054 5.97376 5.01671Z" fill="currentColor"/>
    </symbol>

    <symbol xmlns="http://www.w3.org/2000/svg" viewBox="0 0 28 18" id="btn-view-list" fill="none">
        <path fill-rule="evenodd" clip-rule="evenodd" d="M13.968 10H24.032C24.4706 10 24.8491 10 25.1624 10.0214C25.4922 10.0439 25.8221 10.0934 26.1481 10.2284C26.8831 10.5328 27.4672 11.1169 27.7716 11.852C27.9066 12.1779 27.9561 12.5078 27.9787 12.8376C28 13.1509 28 13.5294 28 13.968V14.032C28 14.4706 28 14.8491 27.9787 15.1624C27.9561 15.4922 27.9066 15.8221 27.7716 16.1481C27.4672 16.8831 26.8831 17.4672 26.1481 17.7716C25.8221 17.9066 25.4922 17.9561 25.1624 17.9787C24.8491 18 24.4706 18 24.032 18H13.968C13.5294 18 13.1509 18 12.8376 17.9787C12.5078 17.9561 12.1779 17.9066 11.852 17.7716C11.1169 17.4672 10.5328 16.8831 10.2284 16.1481C10.0934 15.8221 10.0439 15.4922 10.0214 15.1624C9.99998 14.8491 9.99999 14.4706 10 14.032V13.968C9.99999 13.5294 9.99998 13.1509 10.0214 12.8376C10.0439 12.5078 10.0934 12.1779 10.2284 11.852C10.5328 11.1169 11.1169 10.5328 11.852 10.2284C12.1779 10.0934 12.5078 10.0439 12.8376 10.0214C13.1509 10 13.5294 10 13.968 10ZM12.9738 12.0167C12.7458 12.0323 12.6589 12.0589 12.6173 12.0761C12.3723 12.1776 12.1776 12.3723 12.0761 12.6173C12.0589 12.6589 12.0323 12.7458 12.0167 12.9738C12.0005 13.2107 12 13.5204 12 14C12 14.4796 12.0005 14.7893 12.0167 15.0262C12.0323 15.2542 12.0589 15.3411 12.0761 15.3827C12.1776 15.6277 12.3723 15.8224 12.6173 15.9239C12.6589 15.9411 12.7458 15.9677 12.9738 15.9833C13.2107 15.9995 13.5204 16 14 16H24C24.4796 16 24.7893 15.9995 25.0262 15.9833C25.2542 15.9677 25.3411 15.9411 25.3827 15.9239C25.6277 15.8224 25.8224 15.6277 25.9239 15.3827C25.9411 15.3411 25.9677 15.2542 25.9833 15.0262C25.9995 14.7893 26 14.4796 26 14C26 13.5204 25.9995 13.2107 25.9833 12.9738C25.9677 12.7458 25.9411 12.6589 25.9239 12.6173C25.8224 12.3723 25.6277 12.1776 25.3827 12.0761C25.3411 12.0589 25.2542 12.0323 25.0262 12.0167C24.7893 12.0005 24.4796 12 24 12H14C13.5204 12 13.2107 12.0005 12.9738 12.0167Z" fill="currentColor"/>
        <path fill-rule="evenodd" clip-rule="evenodd" d="M13.968 4.32668e-07H24.032C24.4706 -9.56733e-06 24.8491 -1.96602e-05 25.1624 0.0213503C25.4922 0.0438603 25.8221 0.0933604 26.1481 0.22836C26.8831 0.53284 27.4672 1.11687 27.7716 1.85195C27.9066 2.17788 27.9561 2.50779 27.9787 2.83762C28 3.15088 28 3.52936 28 3.96801V4.03199C28 4.47064 28 4.84913 27.9787 5.16238C27.9561 5.49221 27.9066 5.82212 27.7716 6.14805C27.4672 6.88314 26.8831 7.4672 26.1481 7.7716C25.8221 7.9066 25.4922 7.9561 25.1624 7.9787C24.8491 8 24.4706 8 24.032 8H13.968C13.5294 8 13.1509 8 12.8376 7.9787C12.5078 7.9561 12.1779 7.9066 11.852 7.7716C11.1169 7.4672 10.5328 6.88314 10.2284 6.14805C10.0934 5.82212 10.0439 5.49221 10.0214 5.16238C9.99998 4.84913 9.99999 4.47064 10 4.03198V3.96802C9.99999 3.52937 9.99998 3.15088 10.0214 2.83762C10.0439 2.50779 10.0934 2.17788 10.2284 1.85195C10.5328 1.11687 11.1169 0.53284 11.852 0.22836C12.1779 0.0933604 12.5078 0.0438603 12.8376 0.0213503C13.1509 -1.96602e-05 13.5294 -9.56733e-06 13.968 4.32668e-07ZM12.9738 2.01671C12.7458 2.03227 12.6589 2.05888 12.6173 2.07612C12.3723 2.17762 12.1776 2.37229 12.0761 2.61732C12.0589 2.65893 12.0323 2.74576 12.0167 2.97376C12.0005 3.21074 12 3.52038 12 4C12 4.47963 12.0005 4.78926 12.0167 5.02624C12.0323 5.25424 12.0589 5.34107 12.0761 5.38268C12.1776 5.62771 12.3723 5.82239 12.6173 5.92388C12.6589 5.94112 12.7458 5.96773 12.9738 5.98329C13.2107 5.99946 13.5204 6 14 6H24C24.4796 6 24.7893 5.99946 25.0262 5.98329C25.2542 5.96773 25.3411 5.94112 25.3827 5.92388C25.6277 5.82239 25.8224 5.62771 25.9239 5.38268C25.9411 5.34107 25.9677 5.25424 25.9833 5.02624C25.9995 4.78926 26 4.47963 26 4C26 3.52038 25.9995 3.21074 25.9833 2.97376C25.9677 2.74576 25.9411 2.65893 25.9239 2.61732C25.8224 2.37229 25.6277 2.17762 25.3827 2.07612C25.3411 2.05888 25.2542 2.03227 25.0262 2.01671C24.7893 2.00054 24.4796 2 24 2H14C13.5204 2 13.2107 2.00054 12.9738 2.01671Z" fill="currentColor"/>
        <rect x="2" y="1" width="6" height="6" rx="2" stroke="currentColor" stroke-width="2"/>
        <rect x="2" y="11" width="6" height="6" rx="2" stroke="currentColor" stroke-width="2"/>
    </symbol>

    <symbol xmlns="http://www.w3.org/2000/svg" viewBox="0 0 24 24" id="btn-view-table" fill="none"><path fill-rule="evenodd" clip-rule="evenodd" d="M6.96802 13H17.032C17.4706 13 17.8491 13 18.1624 13.0214C18.4922 13.0439 18.8221 13.0934 19.1481 13.2284C19.8831 13.5328 20.4672 14.1169 20.7716 14.852C20.9066 15.1779 20.9561 15.5078 20.9787 15.8376C21 16.1509 21 16.5294 21 16.968V17.032C21 17.4706 21 17.8491 20.9787 18.1624C20.9561 18.4922 20.9066 18.8221 20.7716 19.1481C20.4672 19.8831 19.8831 20.4672 19.1481 20.7716C18.8221 20.9066 18.4922 20.9561 18.1624 20.9787C17.8491 21 17.4706 21 17.032 21H6.96801C6.52936 21 6.15088 21 5.83762 20.9787C5.50779 20.9561 5.17788 20.9066 4.85195 20.7716C4.11687 20.4672 3.53284 19.8831 3.22836 19.1481C3.09336 18.8221 3.04386 18.4922 3.02135 18.1624C2.99998 17.8491 2.99999 17.4706 3 17.032V16.968C2.99999 16.5294 2.99998 16.1509 3.02135 15.8376C3.04386 15.5078 3.09336 15.1779 3.22836 14.852C3.53284 14.1169 4.11687 13.5328 4.85195 13.2284C5.17788 13.0934 5.50779 13.0439 5.83762 13.0214C6.15088 13 6.52937 13 6.96802 13ZM5.97376 15.0167C5.74576 15.0323 5.65893 15.0589 5.61732 15.0761C5.37229 15.1776 5.17762 15.3723 5.07612 15.6173C5.05888 15.6589 5.03227 15.7458 5.01671 15.9738C5.00054 16.2107 5 16.5204 5 17C5 17.4796 5.00054 17.7893 5.01671 18.0262C5.03227 18.2542 5.05888 18.3411 5.07612 18.3827C5.17762 18.6277 5.37229 18.8224 5.61732 18.9239C5.65893 18.9411 5.74576 18.9677 5.97376 18.9833C6.21074 18.9995 6.52038 19 7 19H17C17.4796 19 17.7893 18.9995 18.0262 18.9833C18.2542 18.9677 18.3411 18.9411 18.3827 18.9239C18.6277 18.8224 18.8224 18.6277 18.9239 18.3827C18.9411 18.3411 18.9677 18.2542 18.9833 18.0262C18.9995 17.7893 19 17.4796 19 17C19 16.5204 18.9995 16.2107 18.9833 15.9738C18.9677 15.7458 18.9411 15.6589 18.9239 15.6173C18.8224 15.3723 18.6277 15.1776 18.3827 15.0761C18.3411 15.0589 18.2542 15.0323 18.0262 15.0167C17.7893 15.0005 17.4796 15 17 15H7C6.52038 15 6.21074 15.0005 5.97376 15.0167Z" fill="currentColor"/><path fill-rule="evenodd" clip-rule="evenodd" d="M6.96802 3H17.032C17.4706 2.99999 17.8491 2.99998 18.1624 3.02135C18.4922 3.04386 18.8221 3.09336 19.1481 3.22836C19.8831 3.53284 20.4672 4.11687 20.7716 4.85195C20.9066 5.17788 20.9561 5.50779 20.9787 5.83762C21 6.15088 21 6.52936 21 6.96801V7.03199C21 7.47064 21 7.84913 20.9787 8.16238C20.9561 8.49221 20.9066 8.82212 20.7716 9.14805C20.4672 9.88314 19.8831 10.4672 19.1481 10.7716C18.8221 10.9066 18.4922 10.9561 18.1624 10.9787C17.8491 11 17.4706 11 17.032 11H6.96801C6.52936 11 6.15088 11 5.83762 10.9787C5.50779 10.9561 5.17788 10.9066 4.85195 10.7716C4.11687 10.4672 3.53284 9.88314 3.22836 9.14805C3.09336 8.82212 3.04386 8.49221 3.02135 8.16238C2.99998 7.84913 2.99999 7.47064 3 7.03198V6.96802C2.99999 6.52937 2.99998 6.15088 3.02135 5.83762C3.04386 5.50779 3.09336 5.17788 3.22836 4.85195C3.53284 4.11687 4.11687 3.53284 4.85195 3.22836C5.17788 3.09336 5.50779 3.04386 5.83762 3.02135C6.15088 2.99998 6.52937 2.99999 6.96802 3ZM5.97376 5.01671C5.74576 5.03227 5.65893 5.05888 5.61732 5.07612C5.37229 5.17762 5.17762 5.37229 5.07612 5.61732C5.05888 5.65893 5.03227 5.74576 5.01671 5.97376C5.00054 6.21074 5 6.52038 5 7C5 7.47963 5.00054 7.78926 5.01671 8.02624C5.03227 8.25424 5.05888 8.34107 5.07612 8.38268C5.17762 8.62771 5.37229 8.82239 5.61732 8.92388C5.65893 8.94112 5.74576 8.96773 5.97376 8.98329C6.21074 8.99946 6.52038 9 7 9H17C17.4796 9 17.7893 8.99946 18.0262 8.98329C18.2542 8.96773 18.3411 8.94112 18.3827 8.92388C18.6277 8.82239 18.8224 8.62771 18.9239 8.38268C18.9411 8.34107 18.9677 8.25424 18.9833 8.02624C18.9995 7.78926 19 7.47963 19 7C19 6.52038 18.9995 6.21074 18.9833 5.97376C18.9677 5.74576 18.9411 5.65893 18.9239 5.61732C18.8224 5.37229 18.6277 5.17762 18.3827 5.07612C18.3411 5.05888 18.2542 5.03227 18.0262 5.01671C17.7893 5.00054 17.4796 5 17 5H7C6.52038 5 6.21074 5.00054 5.97376 5.01671Z" fill="currentColor"/></symbol>

    <symbol xmlns="http://www.w3.org/2000/svg" viewBox="0 0 36 36" id="mark-keychain" fill="none"><path fill-rule="evenodd" clip-rule="evenodd" d="M18.392 8h5.625C26.217 8 28 9.783 28 11.983v5.625c0 1.057-.42 2.069-1.167 2.816L16.55 30.707a1 1 0 0 1-1.414 0l-9.843-9.844a1 1 0 0 1 0-1.414L15.575 9.168A3.98 3.98 0 0 1 18.392 8Zm5.625 2h-5.625a1.98 1.98 0 0 0-1.402.581l-9.576 9.574 8.429 8.43 9.576-9.575c.33-.33.533-.766.573-1.227l.008-.175v-5.625A1.983 1.983 0 0 0 24.017 10ZM13.01 18.159l4.95 4.95-1.414 1.414-4.95-4.95 1.414-1.414Zm10.668-3.597a1.5 1.5 0 1 0-2.12-2.12 1.5 1.5 0 0 0 2.12 2.12Z" fill="currentColor"/></symbol>


</svg>